<svg width="60" height="60" viewBox="0 0 60 60" fill="none" xmlns="http://www.w3.org/2000/svg">
<g id="fluent:person-20-filled" clip-path="url(#clip0_187_3181)">
<path id="Vector" d="M30 6C26.8174 6 23.7652 7.26428 21.5147 9.51472C19.2643 11.7652 18 14.8174 18 18C18 21.1826 19.2643 24.2348 21.5147 26.4853C23.7652 28.7357 26.8174 30 30 30C33.1826 30 36.2348 28.7357 38.4853 26.4853C40.7357 24.2348 42 21.1826 42 18C42 14.8174 40.7357 11.7652 38.4853 9.51472C36.2348 7.26428 33.1826 6 30 6ZM15.027 33C14.2368 32.9964 13.4537 33.149 12.7226 33.4489C11.9915 33.7489 11.3269 34.1903 10.7669 34.7478C10.2069 35.3053 9.76251 35.9679 9.45929 36.6976C9.15608 37.4274 8.99999 38.2098 9 39C9 44.073 11.499 47.898 15.405 50.391C19.251 52.842 24.435 54 30 54C35.565 54 40.749 52.842 44.595 50.391C48.501 47.901 51 44.07 51 39C51 37.4087 50.3679 35.8826 49.2426 34.7574C48.1174 33.6321 46.5913 33 45 33H15.027Z" fill="#1A5796"/>
<g id="Group 102">
<path id="Ellipse 16" d="M57 30C57 45.464 44.464 58 29 58C13.536 58 1 45.464 1 30C1 14.536 13.536 2 29 2C44.464 2 57 14.536 57 30Z" fill="#C8D6DF" stroke="#1A5796" stroke-width="4"/>
<g id="&#240;&#159;&#166;&#134; illustration &#34;beard person scientist rick and morty&#34;">
<g id="Layer 2">
<g id="Layer 1">
<path id="Vector_2" d="M29.5004 50.0337C35.7462 50.0337 40.8094 48.4994 40.8094 46.6067C40.8094 44.7141 35.7462 43.1797 29.5004 43.1797C23.2546 43.1797 18.1914 44.7141 18.1914 46.6067C18.1914 48.4994 23.2546 50.0337 29.5004 50.0337Z" fill="#DFE7EA"/>
<path id="Vector_3" d="M43.0787 21.3409L44.0955 21.594L46.6483 22.2296C46.7284 22.2495 46.8012 22.2915 46.858 22.3505C46.9149 22.4096 46.9535 22.4833 46.9694 22.5631C46.9853 22.6429 46.9778 22.7255 46.9478 22.8013C46.9178 22.8771 46.8665 22.9429 46.8 22.9912L42.9671 25.7634C42.9168 25.7998 42.875 25.8464 42.8446 25.9001C42.8142 25.9537 42.7958 26.0131 42.7908 26.0744C42.7857 26.1356 42.7941 26.1972 42.8153 26.2549C42.8365 26.3127 42.87 26.3653 42.9137 26.4092L46.2133 29.7306C46.2596 29.7773 46.2945 29.8337 46.3153 29.8956C46.3361 29.9575 46.3423 30.0232 46.3334 30.0878C46.3245 30.1524 46.3008 30.2142 46.264 30.2684C46.2272 30.3227 46.1783 30.368 46.1211 30.4008L42.4253 32.522C42.3339 32.5745 42.265 32.658 42.2315 32.7568C42.198 32.8557 42.2022 32.9631 42.2433 33.0591L43.6933 36.4109C43.7227 36.4786 43.7339 36.5525 43.7259 36.6257C43.7179 36.6988 43.6909 36.7687 43.6476 36.8286C43.6042 36.8886 43.5459 36.9365 43.4782 36.9679C43.4106 36.9993 43.3359 37.013 43.2613 37.0078L38.826 36.5064L20.3132 36.6915L15.7377 37.0102C15.6632 37.0154 15.5885 37.0016 15.5208 36.9703C15.4532 36.9389 15.3949 36.8909 15.3515 36.831C15.3081 36.7711 15.2811 36.7012 15.2731 36.6281C15.2651 36.5549 15.2764 36.481 15.3058 36.4133L16.7557 33.0615C16.7968 32.9655 16.801 32.8581 16.7675 32.7592C16.7341 32.6604 16.6652 32.5769 16.5737 32.5244L12.8786 30.4026C12.8213 30.3697 12.7725 30.3245 12.7357 30.2702C12.6989 30.216 12.6752 30.1542 12.6663 30.0896C12.6574 30.025 12.6636 29.9593 12.6844 29.8974C12.7052 29.8355 12.7401 29.779 12.7863 29.7324L16.086 26.411C16.1299 26.367 16.1637 26.3143 16.185 26.2563C16.2064 26.1983 16.2148 26.1365 16.2097 26.0751C16.2045 26.0136 16.186 25.954 16.1554 25.9002C16.1247 25.8464 16.0826 25.7998 16.032 25.7634L12.1997 22.9912C12.1331 22.9428 12.0819 22.8769 12.052 22.8011C12.0221 22.7252 12.0147 22.6425 12.0307 22.5627C12.0468 22.4829 12.0855 22.4092 12.1425 22.3502C12.1995 22.2912 12.2723 22.2494 12.3526 22.2296L15.0662 21.554L16.4949 21.1959L19.2552 20.5113L17.0906 15.5409C17.0575 15.4655 17.047 15.3825 17.0605 15.3015C17.0739 15.2205 17.1107 15.1449 17.1665 15.0839C17.2222 15.0228 17.2946 14.9788 17.375 14.9569C17.4554 14.9351 17.5405 14.9364 17.6202 14.9608L24.8935 17.1816L25.8101 9.97124C25.8222 9.8767 25.8659 9.7888 25.9343 9.72139C26.0027 9.65398 26.092 9.61089 26.1881 9.59892C26.2842 9.58695 26.3816 9.60678 26.465 9.65528C26.5483 9.70378 26.6129 9.7782 26.6485 9.86679L29.4046 16.7208" fill="#B0D7E9"/>
<path id="Vector_4" d="M41.6993 20.5618L39.9406 20.1459L42.1438 15.3424C42.1772 15.2696 42.1876 15.1894 42.1737 15.1112C42.1599 15.033 42.1223 14.9602 42.0656 14.9014C42.0088 14.8425 41.9352 14.8001 41.8535 14.7791C41.7717 14.7581 41.6852 14.7594 41.6042 14.7829L34.2032 16.9288L33.8273 14.116L33.597 12.3936L33.2704 9.95866C33.2582 9.86729 33.2137 9.78233 33.1441 9.71717C33.0744 9.65202 32.9836 9.61038 32.8858 9.59881C32.788 9.58724 32.6889 9.6064 32.6041 9.65328C32.5193 9.70016 32.4535 9.77208 32.4173 9.85771L29.6134 16.4817L29.1572 16.6606" fill="#B0D7E9"/>
<path id="Vector_5" d="M25.7303 31.0008C25.7303 32.8765 25.6952 34.7522 25.6249 36.6279L20.3533 36.6817L15.757 37.0101C15.6821 37.0154 15.607 37.0013 15.5391 36.9692C15.4712 36.937 15.4126 36.8879 15.369 36.8265C15.3254 36.7651 15.2982 36.6935 15.2901 36.6186C15.2819 36.5437 15.2931 36.4679 15.3225 36.3985L16.779 32.9629C16.8206 32.8646 16.8249 32.7544 16.7913 32.653C16.7576 32.5517 16.6882 32.4661 16.5962 32.4125L12.8841 30.2375C12.8265 30.2037 12.7774 30.1573 12.7403 30.1016C12.7033 30.0459 12.6794 29.9825 12.6705 29.9161C12.6616 29.8498 12.6678 29.7823 12.6888 29.7187C12.7098 29.6552 12.7449 29.5973 12.7915 29.5494L16.1062 26.1463C16.15 26.1013 16.1838 26.0474 16.2051 25.9883C16.2264 25.9291 16.2348 25.8661 16.2297 25.8034C16.2246 25.7407 16.2061 25.6798 16.1756 25.6249C16.145 25.57 16.1031 25.5223 16.0526 25.4851L12.201 22.6422C12.1341 22.5928 12.0826 22.5254 12.0524 22.4478C12.0222 22.3701 12.0147 22.2855 12.0306 22.2037C12.0465 22.122 12.0852 22.0464 12.1422 21.9859C12.1993 21.9253 12.2723 21.8823 12.3527 21.8617L15.0793 21.1694L16.5151 20.8055L19.2886 20.1008L17.1154 15.0065C17.0824 14.9293 17.0721 14.8441 17.0858 14.7611C17.0995 14.6782 17.1366 14.6009 17.1927 14.5385C17.2488 14.476 17.3216 14.431 17.4024 14.4088C17.4832 14.3866 17.5687 14.3882 17.6487 14.4132L20.1845 15.2035C20.0626 16.4787 20.1772 17.7681 20.6416 18.9553C20.8464 19.4776 21.1175 19.9785 21.251 20.5241C21.5179 21.6354 21.1748 22.811 20.6416 23.8202C20.1083 24.8294 19.3843 25.7267 18.8102 26.7139C18.4836 27.2778 18.2008 27.8925 18.1862 28.5445C18.1716 29.1965 18.4909 29.8901 19.0851 30.1525C19.9925 30.5531 20.9804 29.8332 21.6794 29.1274C22.3785 28.4215 23.2317 27.6124 24.1994 27.8203C24.8241 27.953 25.2964 28.5023 25.5109 29.1047C25.7255 29.7072 25.7303 30.361 25.7303 31.0008Z" fill="#54B9D3"/>
<path id="Vector_6" d="M20.2474 37.0113C21.7616 37.0113 22.989 35.6304 22.989 33.927C22.989 32.2236 21.7616 30.8427 20.2474 30.8427C18.7333 30.8427 17.5059 32.2236 17.5059 33.927C17.5059 35.6304 18.7333 37.0113 20.2474 37.0113Z" fill="#F2C7A5"/>
<g id="Group" opacity="0.5">
<path id="Vector_7" d="M21.6182 36.1176C21.2116 36.2726 20.7728 36.3426 20.3333 36.3225C19.8939 36.3024 19.4647 36.1927 19.0768 36.0013C18.6888 35.81 18.3518 35.5417 18.09 35.2158C17.8281 34.8899 17.648 34.5145 17.5625 34.1168C17.4771 33.719 17.4884 33.3087 17.5957 32.9155C17.7031 32.5222 17.9038 32.1558 18.1833 31.8426C18.4628 31.5295 18.8142 31.2774 19.2122 31.1045C19.6102 30.9315 20.0449 30.8422 20.4849 30.8427C20.6269 30.8428 20.7687 30.8521 20.9093 30.8706C20.3069 31.0999 19.8029 31.5052 19.4748 32.0242C19.1467 32.5432 19.0126 33.1471 19.0932 33.7431C19.1737 34.3392 19.4644 34.8943 19.9206 35.3233C20.3768 35.7523 20.9732 36.0313 21.6182 36.1176Z" fill="#FFAC89"/>
</g>
<path id="Vector (Stroke)" fill-rule="evenodd" clip-rule="evenodd" d="M20.2473 31.6856C19.1219 31.6856 18.2097 32.6891 18.2097 33.927C18.2097 35.1648 19.1219 36.1683 20.2473 36.1683C21.3726 36.1683 22.2849 35.1648 22.2849 33.927C22.2849 32.6891 21.3726 31.6856 20.2473 31.6856ZM16.8203 33.927C16.8203 31.845 18.3546 30.1573 20.2473 30.1573C22.1399 30.1573 23.6742 31.845 23.6742 33.927C23.6742 36.0089 22.1399 37.6966 20.2473 37.6966C18.3546 37.6966 16.8203 36.0089 16.8203 33.927Z" fill="#274B5B"/>
<path id="Vector_8" d="M38.4104 37.0113C40.1138 37.0113 41.4947 35.6304 41.4947 33.927C41.4947 32.2236 40.1138 30.8427 38.4104 30.8427C36.707 30.8427 35.3262 32.2236 35.3262 33.927C35.3262 35.6304 36.707 37.0113 38.4104 37.0113Z" fill="#F2C7A5"/>
<g id="Group_2" opacity="0.5">
<path id="Vector_9" d="M37.385 36.1176C37.7913 36.2726 38.2298 36.3426 38.6689 36.3225C39.108 36.3024 39.5369 36.1927 39.9245 36.0013C40.3121 35.81 40.6489 35.5417 40.9105 35.2158C41.1722 34.8899 41.3522 34.5145 41.4376 34.1168C41.523 33.719 41.5116 33.3087 41.4044 32.9155C41.2971 32.5222 41.0966 32.1558 40.8173 31.8426C40.538 31.5295 40.1868 31.2774 39.7891 31.1045C39.3914 30.9315 38.9571 30.8422 38.5174 30.8427C38.3755 30.8428 38.2338 30.8521 38.0934 30.8706C38.6953 31.1001 39.1989 31.5057 39.5266 32.0249C39.8542 32.5441 39.9879 33.1482 39.9071 33.7443C39.8263 34.3404 39.5354 34.8955 39.0791 35.3243C38.6229 35.7531 38.0266 36.0318 37.3818 36.1176H37.385Z" fill="#FFAC89"/>
</g>
<path id="Vector (Stroke)_2" fill-rule="evenodd" clip-rule="evenodd" d="M38.4103 31.6856C37.1724 31.6856 36.1689 32.6891 36.1689 33.927C36.1689 35.1648 37.1724 36.1683 38.4103 36.1683C39.6482 36.1683 40.6516 35.1648 40.6516 33.927C40.6516 32.6891 39.6482 31.6856 38.4103 31.6856ZM34.6406 33.927C34.6406 31.845 36.3284 30.1573 38.4103 30.1573C40.4922 30.1573 42.18 31.845 42.18 33.927C42.18 36.0089 40.4922 37.6966 38.4103 37.6966C36.3284 37.6966 34.6406 36.0089 34.6406 33.927Z" fill="#274B5B"/>
<path id="Vector_10" d="M22.3687 41.4489C22.2014 41.1896 22.0428 40.9216 21.8928 40.6451C20.8542 38.7284 20.2471 36.416 20.2471 33.9266C20.2471 27.3028 24.5432 21.9326 29.8429 21.9326C35.1425 21.9326 39.4381 27.3034 39.4381 33.9272C39.4381 40.5511 35.1419 45.9213 29.8429 45.9213C27.3829 45.9213 25.1393 44.7642 23.4412 42.8623" fill="#F2C7A5"/>
<g id="Group_3" opacity="0.5">
<path id="Vector_11" d="M30.528 45.8568C30.2049 45.8999 29.8794 45.9215 29.5536 45.9213C27.1672 45.9213 24.9912 44.7649 23.3448 42.8618L22.3047 41.4485C22.1417 41.1888 21.9877 40.9207 21.8426 40.6441C20.8353 38.727 20.2471 36.4153 20.2471 33.926C20.2471 27.3019 24.4131 21.9326 29.5536 21.9326C29.8786 21.9324 30.2033 21.954 30.5256 21.9971C25.843 22.6232 22.1917 27.724 22.1917 33.9254C22.1917 36.4147 22.7799 38.7263 23.7872 40.6435C23.9327 40.9196 24.0867 41.1878 24.2493 41.4479L25.2895 42.8612C26.7098 44.5037 28.5254 45.5895 30.528 45.8568Z" fill="#EF997B"/>
</g>
<g id="Group_4" opacity="0.5">
<path id="Vector_12" d="M28.4717 45.8568C28.7948 45.8999 29.1203 45.9215 29.4461 45.9213C31.8319 45.9219 34.0079 44.7679 35.6548 42.8629L36.695 41.4495C36.858 41.1898 37.012 40.9216 37.1571 40.6451C38.1643 38.7278 38.7526 36.416 38.7526 33.9266C38.7526 27.3022 34.5865 21.9326 29.4461 21.9326C29.1211 21.9324 28.7964 21.954 28.4741 21.9971C33.1566 22.6233 36.8079 27.7243 36.8079 33.926C36.8079 36.4154 36.2197 38.7272 35.2124 40.6445C35.067 40.9206 34.9129 41.1887 34.7503 41.4489L33.709 42.8629C32.2892 44.5036 30.4755 45.5895 28.4717 45.8568Z" fill="#FCDAC3"/>
</g>
<path id="Vector (Stroke)_3" fill-rule="evenodd" clip-rule="evenodd" d="M37.971 33.8133C37.971 31.1652 37.2631 28.7408 36.0907 26.8256L37.3387 26.0449C38.6609 28.205 39.4385 30.9018 39.4385 33.8133C39.4385 40.7133 34.9988 46.6067 29.1957 46.6067C26.5142 46.6067 24.1012 45.3257 22.3037 43.2844L23.3999 42.298C24.968 44.0788 27.0016 45.1232 29.1957 45.1232C33.896 45.1232 37.971 40.2245 37.971 33.8133Z" fill="#274B5B"/>
<path id="Vector (Stroke)_4" fill-rule="evenodd" clip-rule="evenodd" d="M35.6019 26.0449C35.3087 25.6716 34.9873 25.3211 34.6406 24.9964L35.593 23.9888C35.9911 24.3616 36.3601 24.7641 36.6968 25.1928L35.6019 26.0449Z" fill="#274B5B"/>
<path id="Vector (Stroke)_5" fill-rule="evenodd" clip-rule="evenodd" d="M29.1801 22.7171C24.4516 22.7171 20.3523 27.5706 20.3523 33.9228C20.3523 36.283 20.9289 38.4644 21.9041 40.2617M18.876 33.9228C18.876 27.0863 23.3423 21.2472 29.1801 21.2472C30.91 21.2472 32.5344 21.7706 33.9546 22.683L33.1542 23.9181C31.9518 23.1456 30.6023 22.7171 29.1801 22.7171M18.876 33.9228C18.876 36.5191 19.5098 38.9418 20.6053 40.9606L18.876 33.9228ZM21.9042 40.262C22.045 40.5212 22.1936 40.7718 22.35 41.014L21.1082 41.809C20.9312 41.5349 20.7636 41.2522 20.6054 40.9609L20.6053 40.9606" fill="#274B5B"/>
<path id="Vector_13" d="M28.4716 32.2135C28.4716 32.9406 28.2188 33.6379 27.769 34.1521C27.3191 34.6662 26.7089 34.9551 26.0727 34.9551C25.4365 34.9551 24.8263 34.6662 24.3764 34.1521C23.9266 33.6379 23.6738 32.9406 23.6738 32.2135" fill="white"/>
<path id="Vector_14" d="M28.4714 32.2135C28.4714 32.5735 28.4005 32.93 28.2627 33.2627C28.125 33.5953 27.923 33.8975 27.6684 34.1521C27.4139 34.4067 27.1116 34.6086 26.779 34.7464C26.4464 34.8842 26.0899 34.9551 25.7299 34.9551C25.3698 34.9551 25.0133 34.8842 24.6807 34.7464C24.3481 34.6086 24.0458 34.4067 23.7913 34.1521C23.5367 33.8975 23.3347 33.5953 23.197 33.2627C23.0592 32.93 22.9883 32.5735 22.9883 32.2135H23.0742C23.2268 32.8015 23.5702 33.3223 24.0507 33.694C24.5311 34.0657 25.1214 34.2674 25.7289 34.2674C26.3364 34.2674 26.9267 34.0657 27.4071 33.694C27.8876 33.3223 28.231 32.8015 28.3836 32.2135H28.4714Z" fill="#DFE7EA"/>
<path id="Vector (Stroke)_6" fill-rule="evenodd" clip-rule="evenodd" d="M23.7903 32.2135C23.7903 32.7281 23.9947 33.2217 24.3586 33.5856C24.7225 33.9495 25.2161 34.1539 25.7307 34.1539C26.2453 34.1539 26.7388 33.9495 27.1027 33.5856C27.4666 33.2217 27.6711 32.7281 27.6711 32.2135H29.1576C29.1576 33.1224 28.7966 33.9941 28.1539 34.6367C27.5112 35.2794 26.6396 35.6405 25.7307 35.6405C24.8218 35.6405 23.9501 35.2794 23.3074 34.6367C22.6648 33.9941 22.3037 33.1224 22.3037 32.2135H23.7903Z" fill="#274B5B"/>
<path id="Vector_15" d="M25.7303 34.2697C26.1088 34.2697 26.4157 33.9628 26.4157 33.5843C26.4157 33.2057 26.1088 32.8989 25.7303 32.8989C25.3518 32.8989 25.0449 33.2057 25.0449 33.5843C25.0449 33.9628 25.3518 34.2697 25.7303 34.2697Z" fill="#274B5B"/>
<path id="Vector_16" d="M26.4159 33.5843C26.7944 33.5843 27.1013 33.4308 27.1013 33.2416C27.1013 33.0523 26.7944 32.8989 26.4159 32.8989C26.0373 32.8989 25.7305 33.0523 25.7305 33.2416C25.7305 33.4308 26.0373 33.5843 26.4159 33.5843Z" fill="white"/>
<path id="Vector_17" d="M36.0116 32.2135C36.0116 32.9406 35.7589 33.6379 35.309 34.1521C34.8591 34.6662 34.249 34.9551 33.6127 34.9551C32.9765 34.9551 32.3664 34.6662 31.9165 34.1521C31.4666 33.6379 31.2139 32.9406 31.2139 32.2135" fill="white"/>
<path id="Vector_18" d="M36.0115 32.2135C36.0115 32.9406 35.7226 33.6379 35.2085 34.1521C34.6943 34.6662 33.997 34.9551 33.2699 34.9551C32.5428 34.9551 31.8455 34.6662 31.3313 34.1521C30.8172 33.6379 30.5283 32.9406 30.5283 32.2135H30.6143C30.7668 32.8015 31.1103 33.3223 31.5907 33.694C32.0712 34.0657 32.6615 34.2674 33.2689 34.2674C33.8764 34.2674 34.4667 34.0657 34.9472 33.694C35.4276 33.3223 35.7711 32.8015 35.9236 32.2135H36.0115Z" fill="#DFE7EA"/>
<path id="Vector (Stroke)_7" fill-rule="evenodd" clip-rule="evenodd" d="M31.3294 32.2135C31.3294 32.7281 31.5338 33.2217 31.8977 33.5856C32.2616 33.9495 32.7551 34.1539 33.2697 34.1539C33.7844 34.1539 34.2779 33.9495 34.6418 33.5856C35.0057 33.2217 35.2101 32.7281 35.2101 32.2135H36.6967C36.6967 33.1224 36.3357 33.9941 35.693 34.6367C35.0503 35.2794 34.1786 35.6405 33.2697 35.6405C32.3609 35.6405 31.4892 35.2794 30.8465 34.6367C30.2038 33.9941 29.8428 33.1224 29.8428 32.2135H31.3294Z" fill="#274B5B"/>
<path id="Vector_19" d="M33.2694 34.2697C33.6479 34.2697 33.9548 33.9628 33.9548 33.5843C33.9548 33.2057 33.6479 32.8989 33.2694 32.8989C32.8908 32.8989 32.584 33.2057 32.584 33.5843C32.584 33.9628 32.8908 34.2697 33.2694 34.2697Z" fill="#274B5B"/>
<path id="Vector_20" d="M33.9549 33.5843C34.3335 33.5843 34.6403 33.4308 34.6403 33.2416C34.6403 33.0523 34.3335 32.8989 33.9549 32.8989C33.5764 32.8989 33.2695 33.0523 33.2695 33.2416C33.2695 33.4308 33.5764 33.5843 33.9549 33.5843Z" fill="white"/>
<path id="Vector_21" d="M18.2995 29.7275C18.2544 29.5661 18.2229 29.4008 18.2053 29.2336C18.1904 29.0785 18.1875 28.9224 18.1965 28.7668C18.2125 28.5051 18.2661 28.2473 18.3557 28.0024C18.4141 27.8374 18.4952 27.6823 18.5965 27.5418C18.6714 27.4457 18.7276 27.4037 18.7518 27.4187C18.8069 27.4515 18.7122 27.6938 18.6417 28.0864C18.6019 28.3142 18.5834 28.5456 18.5866 28.7772C18.5891 28.912 18.5992 29.0465 18.6169 29.1801C18.6372 29.3223 18.6666 29.4629 18.705 29.6009C18.727 29.6705 18.7469 29.7408 18.7717 29.807C18.7942 29.8691 18.8205 29.9297 18.8505 29.9883C18.8768 30.0411 18.909 30.0906 18.9463 30.1357L18.9722 30.169L19.0014 30.199C19.0201 30.2198 19.0404 30.2391 19.062 30.2565C19.2294 30.3866 19.4207 30.4791 19.6239 30.5282C19.8074 30.5806 19.9666 30.6111 20.0762 30.6434C20.1859 30.6756 20.2481 30.7009 20.2476 30.7343C20.247 30.7677 20.1842 30.7919 20.0696 30.8143C19.9058 30.8426 19.7393 30.8498 19.5738 30.8356C19.4551 30.8271 19.3375 30.8059 19.2229 30.7723C19.0831 30.7323 18.9506 30.6685 18.8306 30.5835C18.7971 30.5605 18.7652 30.5349 18.7353 30.5069L18.6885 30.4643L18.6455 30.4171C18.5865 30.353 18.5351 30.2817 18.4924 30.2047C18.4501 30.1296 18.4133 30.0513 18.3822 29.9705C18.3497 29.8916 18.3254 29.8104 18.2995 29.7275Z" fill="#3B535C"/>
<path id="Vector_22" d="M20.1365 24.5971C20.496 23.8607 20.7907 23.2523 20.8979 23.3067C20.9515 23.333 20.9418 23.5233 20.8738 23.8075C20.6817 24.5402 20.3573 25.2106 19.9248 25.7687C19.7539 25.9781 19.6216 26.0779 19.5776 26.0352C19.4887 25.9433 19.7812 25.3362 20.1365 24.5971Z" fill="#3B535C"/>
<path id="Vector_23" d="M20.7616 19.552C20.4634 18.6297 20.1194 17.8885 20.2946 17.8239C20.3781 17.7943 20.5775 17.9464 20.803 18.2337C21.3644 18.9939 21.6447 19.8486 21.6158 20.7129C21.5934 21.0423 21.5107 21.2459 21.4173 21.2472C21.2215 21.2498 21.0688 20.4744 20.7616 19.552Z" fill="#3B535C"/>
<path id="Vector_24" d="M38.3815 37.7341C39.9676 39.3097 39.2838 42.4713 39.3301 44.7032L38.6139 43.9154C38.3445 45.3058 37.6939 46.5953 36.7338 47.6418C36.5235 47.2599 36.2249 46.9332 35.8626 46.6885C35.5982 47.8633 34.9704 48.9264 34.0672 49.7289C34.1946 49.4229 34.2545 49.0934 34.2431 48.7624C34.2316 48.4315 34.149 48.1068 34.0007 47.8103C33.8418 48.3008 33.5803 48.7525 33.2333 49.1357C32.8864 49.5189 32.4618 49.8249 31.9875 50.0337C32.1367 49.8257 32.2301 49.5833 32.2589 49.3295C32.2877 49.0757 32.251 48.8188 32.1523 48.5829C31.4202 49.8125 29.3259 49.8501 28.553 48.6472C28.4993 48.8896 28.5389 49.2096 28.7884 49.2302C27.7373 49.3908 26.7753 48.9508 26.0517 48.1763C26.0962 48.6155 26.3055 49.0221 26.638 49.315C26.0764 49.2795 25.534 49.098 25.0653 48.7887C24.5965 48.4794 24.2179 48.0532 23.9672 47.5527C22.611 47.6363 21.2567 46.7134 20.8468 45.4262C20.8751 45.5348 20.8744 45.6488 20.8448 45.757C20.8151 45.8652 20.7576 45.9638 20.6778 46.0431C18.3346 44.8626 18.4627 39.5636 19.9976 37.8183C19.9976 37.8183 22.6745 39.826 25.1873 39.8109C26.7582 39.8018 28.5963 38.611 30.4191 38.6031C31.9442 38.5964 32.6116 40.6708 33.5914 39.7582C36.1798 37.3414 38.3486 37.7013 38.3815 37.7341Z" fill="#B0D7E9"/>
<path id="Vector_25" d="M39.4379 44.1647L38.7361 43.3988C38.4719 44.7506 37.8344 46.0045 36.8938 47.0222C36.6878 46.651 36.3952 46.3334 36.0402 46.0955C35.7809 47.2377 35.1658 48.2714 34.281 49.052C34.4057 48.7545 34.4645 48.4341 34.4534 48.1124C34.4422 47.7907 34.3614 47.4751 34.2164 47.1866C34.0607 47.6636 33.8045 48.1028 33.4646 48.4753C33.1246 48.8479 32.7086 49.1454 32.2438 49.3483C32.3898 49.146 32.4812 48.9104 32.5094 48.6636C32.5375 48.4168 32.5014 48.1671 32.4046 47.9378C31.6873 49.1339 29.6351 49.1698 28.8777 48.0009C28.8251 48.2366 28.8849 49.1068 29.13 49.1274C28.1 49.2835 27.1358 48.2966 26.4269 47.5431C26.4675 47.9655 26.5745 48.7273 26.8973 49.0072C25.7998 48.9518 24.8613 47.9125 24.3837 46.9368C23.0549 47.0187 21.7278 46.1208 21.3261 44.8694C21.354 44.9749 21.3534 45.0857 21.3244 45.1909C21.2955 45.296 21.2392 45.392 21.1612 45.4692C20.3679 45.072 19.8461 44.2095 19.5615 43.1802C20.5777 43.9096 21.7733 44.4104 22.9527 44.8588C23.7549 45.1628 24.5666 45.4527 25.4125 45.6047C26.2326 45.7514 27.0707 45.7667 27.9046 45.7814C30.2185 45.8209 32.627 45.8403 34.7191 44.8617C35.3169 44.5813 35.9511 44.0999 35.9302 43.4477C35.9063 42.7 35.076 42.2734 34.3677 42.0054C35.8764 41.785 37.1126 40.632 37.8006 39.291C38.0577 38.7815 38.2608 38.2472 38.4068 37.6967L38.6094 37.8522C39.0147 39.9833 39.3943 41.9959 39.4379 44.1647Z" fill="#54B9D3"/>
<path id="Vector_26" d="M28.7059 38.2621L25.5401 39.5098L20.3302 37.0112C19.9858 37.4324 19.7245 37.922 19.5615 38.4513C20.6527 38.7188 21.7122 39.114 22.7205 39.6296C23.2155 39.8782 23.6977 40.1544 24.165 40.457C24.4202 40.6219 24.956 41.1626 25.2719 41.1214C25.3669 41.101 25.4564 41.0585 25.5339 40.997C28.4309 39.028 30.5579 38.9416 33.9548 39.5831L32.3586 38.6012L28.7059 38.2621Z" fill="#D9EDF4"/>
<path id="Vector (Stroke)_8" fill-rule="evenodd" clip-rule="evenodd" d="M20.5924 37.1896C20.9057 37.4521 20.9377 37.9083 20.6639 38.2086C20.3767 38.5236 20.1128 39.0496 19.9323 39.7341C19.7548 40.4077 19.6725 41.1807 19.7055 41.9402C19.7386 42.7024 19.8864 43.4194 20.1435 43.9938C20.392 44.549 20.7195 44.9235 21.0966 45.1223L21.6911 44.9585C22.0083 45.9193 23.0852 46.6272 24.1341 46.5648L24.6392 46.5348L24.8593 46.9716C25.0387 47.3277 25.2872 47.6953 25.5776 48.0029C25.5765 47.9926 25.5755 47.9825 25.5745 47.9727L25.361 45.8469L26.8768 47.4123C27.2462 47.7938 27.6624 48.1155 28.1377 48.4039C28.1388 48.3467 28.1447 48.2822 28.1601 48.2154L28.5513 46.5109L29.531 47.9821C29.7542 48.3171 30.2104 48.5308 30.7483 48.5215C31.2861 48.5122 31.7357 48.2829 31.9478 47.9393L32.7139 46.6977L33.292 48.0295C33.3088 48.0682 33.3244 48.1073 33.3388 48.1467C33.5306 47.8958 33.6796 47.6165 33.7794 47.3192L34.3472 45.6284L35.1715 47.2193C35.2024 47.279 35.2313 47.3396 35.2579 47.4009C35.4429 47.0435 35.5836 46.6641 35.6755 46.2703L35.9174 45.2332L36.8344 45.8306C37.0071 45.9431 37.1688 46.0695 37.3177 46.2081C37.9021 45.4118 38.3062 44.5031 38.4995 43.5406L38.7853 42.1177L39.3012 42.6653C39.2786 41.033 38.9627 39.5065 38.2189 38.0766C38.0332 37.7197 38.1846 37.2861 38.557 37.1081C38.9294 36.9302 39.3818 37.0753 39.5675 37.4322C40.7322 39.6712 40.9624 42.0613 40.726 44.5247L40.5686 46.1652L39.5952 45.1322C39.2079 46.1357 38.6213 47.0627 37.8633 47.8598L37.152 48.6078L36.7108 47.8346C36.3271 48.6479 35.769 49.3804 35.0673 49.9818L32.6081 52.0899L33.5196 49.9769C33.2734 50.1443 33.0097 50.2882 32.7323 50.4061L30.2178 51.4742L31.3881 49.8991C31.1839 49.9403 30.9778 49.9621 30.7754 49.9656C30.4547 49.9711 30.1228 49.931 29.8024 49.8404C29.7457 49.9991 29.6155 50.2166 29.34 50.336L29.0268 50.4717L28.7146 50.334C28.6572 50.3087 28.6001 50.2832 28.5433 50.2573L26.7795 50.1708C25.9601 50.1306 25.2646 49.7207 24.7383 49.2446C24.3327 48.8776 23.9908 48.4393 23.7259 48.0027C22.6669 47.9252 21.6618 47.4118 20.9779 46.6383L20.9455 46.6694L20.4579 46.4321C19.6489 46.0385 19.1047 45.3366 18.7586 44.5632C18.4116 43.7879 18.2385 42.8889 18.1999 42.0003C18.1611 41.1089 18.2563 40.1961 18.4713 39.3803C18.6835 38.5754 19.0275 37.8085 19.5292 37.2582C19.803 36.9579 20.279 36.9272 20.5924 37.1896ZM20.3255 45.3348L20.266 45.2778C20.2553 45.2881 20.2476 45.3008 20.2436 45.3148C20.2397 45.3287 20.2396 45.3435 20.2434 45.3575L20.3255 45.3348ZM29.6434 48.3997C29.6435 48.3998 29.6439 48.4026 29.6441 48.4077C29.6435 48.4022 29.6433 48.3996 29.6434 48.3997ZM28.3507 49.4974C28.3506 49.5005 28.3507 49.5022 28.3508 49.5022C28.3508 49.5022 28.3508 49.5008 28.3507 49.4979C28.3507 49.4977 28.3507 49.4975 28.3507 49.4974Z" fill="#42565E"/>
<path id="Vector_27" d="M27.711 43.8652C27.5495 43.8648 27.3948 43.8026 27.2806 43.6923C27.1664 43.582 27.102 43.4325 27.1016 43.2765V41.0269C27.102 40.8709 27.1664 40.7215 27.2806 40.6112C27.3948 40.5008 27.5495 40.4387 27.711 40.4382H31.9753C32.1368 40.4387 32.2915 40.5008 32.4057 40.6112C32.5199 40.7215 32.5842 40.8709 32.5847 41.0269V43.2748C32.5842 43.4308 32.5199 43.5803 32.4057 43.6906C32.2915 43.8009 32.1368 43.8631 31.9753 43.8635" fill="#EBCBAC"/>
<path id="Vector_28" d="M32.5847 41.0948V41.8733C32.5373 41.7561 32.4592 41.6564 32.36 41.5862C32.2609 41.516 32.1449 41.4784 32.0263 41.4781H27.762C27.6005 41.4786 27.4457 41.5479 27.3316 41.6709C27.2174 41.794 27.153 41.9607 27.1525 42.1347V43.8652C27.119 43.783 27.1017 43.6942 27.1016 43.6045V41.0948C27.102 40.9208 27.1664 40.7541 27.2806 40.6311C27.3948 40.5081 27.5495 40.4387 27.711 40.4382H31.9753C32.1368 40.4387 32.2915 40.5081 32.4057 40.6311C32.5199 40.7541 32.5842 40.9208 32.5847 41.0948Z" fill="#D7AD8C"/>
<path id="Vector_29" d="M29.8324 39.7528C30.3154 39.7528 30.7868 39.7558 31.2421 39.7623L31.9123 39.7735L32.0756 39.7771H32.1567H32.1798H32.2139L32.2821 39.7818C32.4607 39.8009 32.6318 39.8589 32.7812 39.9511C32.9224 40.0385 33.0399 40.1545 33.1247 40.2903C33.2094 40.4261 33.2591 40.578 33.2699 40.7343V40.7935V40.8385V40.906L33.2642 41.0398L33.2513 41.3009C33.2333 41.6436 33.2134 41.9627 33.1908 42.2539C33.1683 42.5452 33.1439 42.8086 33.1182 43.0401L33.1085 43.1254L33.0963 43.2207C33.0858 43.2911 33.0652 43.36 33.0352 43.4255C32.9835 43.5364 32.9042 43.6345 32.8037 43.712C32.6747 43.8159 32.5074 43.8706 32.3361 43.8647C32.2236 43.8553 32.1734 43.8186 32.174 43.7896C32.1747 43.7606 32.2229 43.7304 32.2943 43.686C32.3872 43.6315 32.4653 43.5582 32.5226 43.4717C32.5567 43.417 32.5785 43.3566 32.5869 43.2941C32.5912 43.261 32.5912 43.2276 32.5869 43.1946L32.5683 43.0401C32.5419 42.8086 32.5175 42.5452 32.4956 42.2539C32.4737 41.9627 32.4532 41.6436 32.4352 41.3009L32.4223 41.0398L32.4165 40.906V40.8385V40.8213V40.8148C32.4163 40.8109 32.4163 40.8069 32.4165 40.803C32.4099 40.7717 32.3957 40.7422 32.3752 40.7166C32.3546 40.691 32.3281 40.67 32.2975 40.655C32.2682 40.6411 32.2359 40.6335 32.203 40.6325L31.9232 40.6384L31.2531 40.6497C30.7977 40.6556 30.3263 40.6591 29.8433 40.6591C29.3603 40.6591 28.8889 40.6562 28.4335 40.6497L27.7634 40.6384L27.4836 40.6325C27.4507 40.6335 27.4184 40.6411 27.3891 40.655C27.3584 40.6699 27.3318 40.6909 27.3111 40.7165C27.2904 40.7421 27.2762 40.7717 27.2695 40.803C27.2697 40.8069 27.2697 40.8109 27.2695 40.8148V40.8213V40.8385V40.906L27.2637 41.0398L27.2508 41.3009C27.2328 41.6436 27.2129 41.9627 27.1904 42.2539C27.1678 42.5452 27.1434 42.8086 27.1177 43.0401L27.099 43.1946C27.0948 43.2276 27.0948 43.261 27.099 43.2941C27.1074 43.3566 27.1293 43.417 27.1633 43.4717C27.2207 43.5582 27.2988 43.6315 27.3917 43.686C27.4624 43.7292 27.5119 43.7564 27.5119 43.7896C27.5119 43.8227 27.4618 43.8553 27.3499 43.8647C27.1785 43.8706 27.0113 43.8159 26.8823 43.712C26.7818 43.6345 26.7025 43.5364 26.6508 43.4255C26.6207 43.36 26.6002 43.2911 26.5897 43.2207L26.5774 43.1254L26.5678 43.0401C26.5414 42.8086 26.517 42.5452 26.4951 42.2539C26.4733 41.9627 26.4527 41.6436 26.4347 41.3009L26.4218 41.0398L26.416 40.906V40.8385V40.7935V40.7343C26.4268 40.578 26.4765 40.4261 26.5613 40.2903C26.646 40.1545 26.7636 40.0385 26.9048 39.9511C27.0542 39.8589 27.2253 39.8009 27.4039 39.7818L27.472 39.7771H27.5061H27.5293H27.6103L27.7737 39.7735L28.4438 39.7623C28.878 39.7558 29.3494 39.7528 29.8324 39.7528Z" fill="#3F565E"/>
<path id="Vector_30" d="M30.0022 42.5387C30.1336 42.5164 30.2632 42.4892 30.3903 42.4571C30.5064 42.4266 30.6199 42.3915 30.7302 42.3521C30.9177 42.2864 31.0936 42.2058 31.2542 42.1118C31.3901 42.0303 31.4934 41.9516 31.5811 41.8946C31.6688 41.8375 31.734 41.8003 31.7925 41.8107C31.8509 41.8211 31.8903 41.8738 31.8985 41.9732C31.8946 42.1119 31.8411 42.2477 31.7428 42.3686C31.5987 42.5472 31.3991 42.7014 31.1583 42.8199C31.0205 42.8899 30.8729 42.9502 30.7179 42.9999C30.5524 43.0522 30.3801 43.0935 30.2034 43.1234C30.113 43.1389 30.0219 43.1498 29.9316 43.1597C29.8412 43.1696 29.7514 43.1747 29.6665 43.1771C29.5026 43.1826 29.3383 43.1795 29.1751 43.1677C28.9019 43.1489 28.6342 43.1024 28.3806 43.0296C28.2063 42.9824 28.0453 42.9145 27.9048 42.8289C27.8069 42.7643 27.7689 42.7083 27.7933 42.6711C27.8443 42.5933 28.1189 42.6056 28.5179 42.6155C28.7177 42.6206 28.9501 42.6239 29.203 42.6155C29.3294 42.6107 29.4612 42.6032 29.5965 42.5914C29.6644 42.5862 29.7324 42.5773 29.797 42.5702C29.8615 42.5632 29.9349 42.5504 30.0022 42.5387Z" fill="#3F565E"/>
<path id="Vector_31" d="M21.3118 38.794C21.2994 38.9555 21.3097 39.1178 21.3424 39.2771C21.3796 39.4415 21.4396 39.6013 21.521 39.7528C21.3911 39.6221 21.2798 39.4778 21.1898 39.3231C21.0999 39.1619 21.0328 38.9916 20.9902 38.8159C20.9472 38.6353 20.9281 38.4508 20.9335 38.2663C20.9335 38.2198 20.938 38.1734 20.9414 38.1269C20.9448 38.0804 20.95 38.0334 20.959 37.9865C20.9729 37.8884 20.9959 37.7915 21.0276 37.6967L21.618 37.9245C21.5742 37.9849 21.5362 38.0484 21.5046 38.1144C21.4859 38.1489 21.4717 38.1848 21.4552 38.2203L21.4121 38.3302C21.3583 38.4808 21.3246 38.6365 21.3118 38.794Z" fill="#3F565E"/>
<path id="Vector_32" d="M21.9349 39.1853C21.9691 39.6233 22.1061 40.0602 22.3036 40.4382C22.0377 40.1272 21.8339 39.7215 21.7125 39.262C21.6508 39.017 21.6189 38.7587 21.6182 38.4983C21.617 38.2233 21.6542 37.9507 21.7278 37.6967L22.1307 38.0067C21.9716 38.3145 21.8998 38.7513 21.9349 39.1853Z" fill="#3F565E"/>
<path id="Vector_33" d="M23.7692 39.8093C23.8408 40.2742 24.0419 40.7222 24.3591 41.1236C23.8992 40.7757 23.5419 40.3576 23.3108 39.897C23.0656 39.4147 22.9581 38.8983 22.9955 38.382L23.9273 38.5032C23.7529 38.9251 23.699 39.3704 23.7692 39.8093Z" fill="#3F565E"/>
<path id="Vector_34" d="M35.3001 39.3726C35.3433 39.6267 35.3324 39.8846 35.268 40.136C35.2126 40.3295 35.1273 40.4431 35.0464 40.438C34.888 40.4262 34.8249 39.9698 34.734 39.4201C34.6432 38.8704 34.5812 38.4225 34.7307 38.3843C34.8038 38.3657 34.9213 38.4607 35.0343 38.6388C35.1738 38.8709 35.2636 39.1186 35.3001 39.3726Z" fill="#3F565E"/>
<path id="Vector_35" d="M38.0313 39.0139C38.0604 39.2016 38.0719 39.3913 38.0655 39.5807C38.0603 39.7351 38.0407 39.8888 38.007 40.0402C37.9471 40.2981 37.8662 40.4463 37.8228 40.4379C37.7261 40.4193 37.8228 39.7997 37.6984 39.0583C37.5741 38.3169 37.311 37.7387 37.3998 37.6985C37.4393 37.6799 37.5603 37.8029 37.6945 38.0362C37.7727 38.1731 37.8387 38.3155 37.8919 38.4621C37.9548 38.6422 38.0015 38.8268 38.0313 39.0139Z" fill="#3F565E"/>
<path id="Vector_36" d="M21.6425 45.3029C21.6174 45.1091 21.6117 44.913 21.6255 44.7179C21.6323 44.6332 21.6434 44.5489 21.6588 44.4654C21.6712 44.3926 21.688 44.3206 21.709 44.25C21.785 43.9902 21.8797 43.8534 21.9187 43.866C21.9576 43.8785 21.9469 44.0438 21.9318 44.2936C21.9281 44.3564 21.9237 44.4258 21.9231 44.4972C21.9224 44.5686 21.9231 44.6479 21.9231 44.7292C21.928 45.082 21.9757 45.4327 22.0649 45.7728C22.0869 45.8508 22.1057 45.9261 22.1277 45.9949C22.1497 46.0636 22.1704 46.1271 22.1905 46.1879C22.2714 46.4232 22.3298 46.5739 22.2915 46.6023C22.2532 46.6307 22.1302 46.5223 21.9877 46.295C21.9488 46.2332 21.9135 46.169 21.8823 46.1026C21.8452 46.027 21.8121 45.9493 21.7831 45.87C21.7174 45.6867 21.6703 45.4966 21.6425 45.3029Z" fill="#3F565E"/>
<path id="Vector_37" d="M23.7084 45.9963C23.6644 45.6549 23.6624 45.3088 23.7024 44.9668C23.7341 44.7071 23.7822 44.5498 23.8288 44.5505C23.8755 44.5513 23.9154 44.7121 23.9465 44.9668C23.9776 45.2215 24.0013 45.5707 24.05 45.9437C24.0757 46.1298 24.1068 46.3044 24.1406 46.4617C24.1609 46.5389 24.1758 46.6146 24.1967 46.6825L24.2238 46.782L24.2529 46.8729C24.3266 47.1052 24.3881 47.2539 24.3449 47.2863C24.3016 47.3188 24.1758 47.2142 24.0338 46.9884L23.9803 46.8974C23.9634 46.865 23.9472 46.8304 23.9303 46.7943C23.8947 46.7178 23.8631 46.6393 23.8356 46.5591C23.7766 46.3762 23.734 46.1878 23.7084 45.9963Z" fill="#3F565E"/>
<path id="Vector_38" d="M25.9088 46.335C25.726 45.3746 25.7003 44.5613 25.7577 44.5506C25.8151 44.54 25.9383 45.3121 26.1164 46.2486C26.2945 47.1852 26.4612 47.9379 26.4046 47.9761C26.3481 48.0142 26.0898 47.296 25.9088 46.335Z" fill="#3F565E"/>
<path id="Vector_39" d="M32.6336 46.6419C32.7844 46.2623 32.8902 45.9062 32.9835 45.6462C33.0768 45.3861 33.1546 45.2292 33.209 45.2362C33.2634 45.2432 33.2821 45.4119 33.2603 45.6813C33.2302 46.0358 33.1476 46.3867 33.0138 46.7274C32.9374 46.9173 32.8398 47.1021 32.7222 47.2797C32.6631 47.3605 32.6095 47.4378 32.548 47.5058C32.5177 47.5397 32.4897 47.5731 32.4602 47.6042L32.3708 47.6903C32.1375 47.907 31.9368 47.9995 31.9042 47.9732C31.8715 47.9468 31.9819 47.8027 32.1375 47.5737L32.1997 47.4841L32.2619 47.3851C32.307 47.3178 32.3459 47.2416 32.3917 47.1649C32.4726 47.0079 32.5566 46.831 32.6336 46.6419Z" fill="#3F565E"/>
<path id="Vector_40" d="M34.3575 46.3167C34.4166 45.8394 34.4471 45.3906 34.4861 45.0678C34.525 44.745 34.5649 44.547 34.5949 44.5506C34.6249 44.5542 34.6403 44.7583 34.6403 45.086C34.6427 45.5162 34.6195 45.9459 34.5709 46.3706C34.542 46.6092 34.4968 46.8432 34.4359 47.0695C34.3858 47.2558 34.3208 47.4334 34.2423 47.5988C34.1047 47.8811 33.9779 48.001 33.9582 47.9737C33.9385 47.9465 34.0152 47.7763 34.1077 47.4892C34.1615 47.322 34.2074 47.1501 34.2453 46.9744C34.2921 46.7586 34.3296 46.5389 34.3575 46.3167Z" fill="#3F565E"/>
<path id="Vector_41" d="M37.0511 45.2588C37.1221 44.881 37.1704 44.5292 37.2159 44.2744C37.2614 44.0196 37.3018 43.8605 37.3348 43.8653C37.3677 43.87 37.3849 44.0344 37.3812 44.2986C37.377 44.646 37.3433 44.9917 37.2804 45.3298C37.2444 45.5182 37.1966 45.7027 37.1374 45.8814C37.1077 45.963 37.0808 46.041 37.0487 46.1102C37.0334 46.1451 37.019 46.1788 37.0023 46.2107L36.9559 46.3C36.8328 46.5241 36.7237 46.6275 36.7015 46.6033C36.6792 46.579 36.7316 46.4301 36.8092 46.1971L36.8393 46.1055L36.8695 46.005C36.8918 45.9364 36.9104 45.8607 36.9327 45.7821C36.9731 45.6236 37.013 45.4474 37.0511 45.2588Z" fill="#3F565E"/>
<path id="Vector_42" d="M37.5085 44.9598C37.5977 44.7274 37.6697 44.495 37.7305 44.2847C37.7579 44.1784 37.7869 44.0779 37.8079 43.9821C37.8288 43.8862 37.8503 43.7973 37.8681 43.7154C37.9369 43.3872 37.9756 43.178 38.0132 43.1798C38.0508 43.1815 38.0815 43.3965 38.06 43.7462C38.0541 43.8333 38.046 43.9292 38.0309 44.0309C38.0159 44.1325 37.9971 44.2412 37.9772 44.3545C37.8721 44.8468 37.6918 45.3166 37.4434 45.7447C37.3849 45.8417 37.3295 45.9347 37.2709 46.016C37.2123 46.0973 37.158 46.1734 37.1048 46.2391C36.8898 46.5028 36.7286 46.6295 36.7006 46.6033C36.6727 46.5772 36.7829 46.3983 36.9489 46.1136C36.9903 46.0421 37.036 45.9649 37.0812 45.8812C37.1263 45.7976 37.1747 45.7069 37.2247 45.6082C37.3187 45.4118 37.4176 45.1945 37.5085 44.9598Z" fill="#3F565E"/>
<path id="Vector_43" d="M19.5963 40.0659C19.6881 39.8702 19.9308 39.7331 20.0927 39.7551C20.2545 39.7771 20.2859 39.9382 20.2014 40.1213C20.1168 40.3044 19.9393 40.4462 19.769 40.4378C19.5987 40.4295 19.507 40.2626 19.5963 40.0659Z" fill="#F2DCCA"/>
<path id="Vector_44" d="M19.7725 42.2199C19.6249 41.9681 19.5541 41.7076 19.5621 41.4464C19.5751 41.2459 19.6463 41.1241 19.7196 41.1236C19.8782 41.1236 19.9806 41.5971 20.3042 42.1519C20.6278 42.7066 21.0409 43.1391 20.9061 43.1776C20.8425 43.1949 20.6483 43.1071 20.4207 42.9376C20.1324 42.7143 19.914 42.4726 19.7725 42.2199Z" fill="#F2DCCA"/>
<path id="Vector (Stroke)_9" fill-rule="evenodd" clip-rule="evenodd" d="M19.5724 37.0072C19.6421 36.5607 20.027 36.261 20.432 36.3379C22.1647 36.6666 23.8008 37.4481 25.2033 38.6169L25.2041 38.6176L25.2147 38.6264C25.2609 38.6651 25.2967 38.695 25.3327 38.7232C25.37 38.7524 25.3978 38.7721 25.4196 38.7855C25.4197 38.7856 25.4199 38.7857 25.42 38.7857C25.4223 38.7845 25.4248 38.7832 25.4273 38.7818C25.4536 38.7674 25.4864 38.7468 25.531 38.7159C25.5631 38.6936 25.5912 38.6733 25.6249 38.6488C25.6422 38.6363 25.661 38.6227 25.6825 38.6072C26.1049 38.2998 26.5601 38.0511 27.0379 37.8668L27.0431 37.8648L27.0483 37.8628C27.5208 37.6892 28.0115 37.5826 28.5084 37.5456C29.0376 37.5013 29.5734 37.5157 30.0619 37.5288L30.1084 37.5301C30.6435 37.5444 31.2459 37.5968 31.836 37.8062L31.8406 37.8079L31.8452 37.8096C32.3666 38.0029 32.8624 38.2718 33.3196 38.6092C33.3395 38.6235 33.357 38.6363 33.3733 38.6481C33.4079 38.6733 33.4367 38.6942 33.4691 38.7167C33.5134 38.7475 33.5461 38.7681 33.5721 38.7823C33.5745 38.7836 33.5768 38.7848 33.579 38.786C33.5792 38.7858 33.5795 38.7857 33.5797 38.7855C33.6015 38.7721 33.6293 38.7525 33.6666 38.7233C33.7034 38.6945 33.7402 38.6638 33.7878 38.6239L33.7961 38.6169C35.1986 37.4481 36.8347 36.6666 38.5674 36.3379C38.9725 36.261 39.3573 36.5607 39.427 37.0072C39.4967 37.4537 39.2249 37.8779 38.8199 37.9547C37.3216 38.239 35.9069 38.9147 34.6942 39.9252C34.6844 39.9334 34.6734 39.9428 34.6611 39.9533C34.4979 40.0928 34.1172 40.418 33.6326 40.4373M19.5724 37.0072C19.5027 37.4537 19.7745 37.8779 20.1796 37.9547L19.5724 37.0072ZM20.1796 37.9547C21.6779 38.239 23.0926 38.9147 24.3054 39.9254L20.1796 37.9547ZM24.3054 39.9254C24.3153 39.9336 24.3265 39.9432 24.339 39.9538C24.5013 40.0925 24.8823 40.4181 25.3671 40.4373L25.3687 40.4373C25.6651 40.4484 25.9117 40.3482 26.0883 40.2518C26.2308 40.1739 26.3689 40.0734 26.4578 40.0088C26.4721 39.9984 26.4852 39.9888 26.4968 39.9805L26.4989 39.979L26.5009 39.9775C26.8199 39.7452 27.1636 39.557 27.5243 39.4173C27.8761 39.2886 28.2414 39.2096 28.6113 39.1823L28.6148 39.182L28.6182 39.1817C29.0729 39.1435 29.5449 39.1561 30.0583 39.1699L30.0723 39.1702C30.5561 39.1832 30.9892 39.2301 31.3754 39.3664C31.7712 39.5136 32.1474 39.7181 32.4944 39.9745L32.4979 39.9771L32.5014 39.9796C32.5128 39.9878 32.5255 39.9971 32.5394 40.0073C32.6287 40.0725 32.7675 40.1738 32.9112 40.2523C33.0882 40.349 33.3356 40.4491 33.6326 40.4373" fill="#42565E"/>
<path id="Vector_45" d="M25.0449 16.3628C25.7841 16.4351 26.4827 16.7039 27.0521 17.1348C27.0924 15.7679 26.3084 14.5044 25.5479 13.3212C25.8072 13.2193 26.0949 13.1911 26.3724 13.2405C26.65 13.2898 26.9042 13.4144 27.1011 13.5975C26.9875 12.4478 26.6501 11.3251 26.1045 10.2809C25.7732 10.4181 25.6767 10.7936 25.6244 11.1182C25.3456 12.85 25.191 14.5962 25.1616 16.3459" fill="#54B9D3"/>
<path id="Vector_46" d="M26.7033 13.2805C27.0896 13.6204 27.4518 13.9924 27.7865 14.3933C27.3482 14.1609 26.8941 13.9664 26.4284 13.8114C25.9758 13.6608 25.5132 13.5493 25.0449 13.4778L25.4455 12.3371C25.886 12.6157 26.3065 12.9311 26.7033 13.2805Z" fill="#3B535C"/>
<path id="Vector_47" d="M26.5205 16.6858C27.02 17.0204 27.4728 17.3991 27.7863 17.8202C27.3157 17.4733 26.7604 17.2157 26.1793 17.0044C25.5983 16.7931 24.9851 16.6262 24.3594 16.4532L24.9411 15.764C25.4734 16.0538 26.0203 16.3502 26.5205 16.6858Z" fill="#3B535C"/>
<path id="Vector_48" d="M14.0669 29.4224C14.4226 29.2464 14.7431 29.0514 14.9905 28.9278C15.2379 28.8041 15.4078 28.7503 15.4429 28.8125C15.478 28.8747 15.3728 29.0368 15.1665 29.2471C14.8921 29.5232 14.5824 29.7488 14.2484 29.9157C13.8486 30.1149 13.4409 30.1826 13.1518 30.1491C12.8627 30.1156 12.6982 30.0093 12.7085 29.9395C12.7187 29.8696 12.8863 29.8347 13.1318 29.7704C13.4523 29.6885 13.7654 29.572 14.0669 29.4224Z" fill="#3B535C"/>
<path id="Vector_49" d="M29.1572 16.5316C29.7148 16.8685 30.196 17.3065 30.5728 17.8202C31.1347 16.7157 31.3879 15.494 31.3083 14.2711L31.8109 15.0046C32.2824 13.676 32.542 12.2886 32.5814 10.888C32.5937 10.4427 32.5759 9.97034 32.3184 9.59552C31.2146 11.6239 30.3111 13.7439 29.6195 15.9287" fill="#54B9D3"/>
<path id="Vector_50" d="M31.5463 14.3601C31.6865 14.8131 31.8044 15.2825 31.8991 15.764C31.7016 15.3782 31.4854 15.0171 31.2524 14.684C31.026 14.3603 30.7839 14.0649 30.5283 13.8005L31.0491 13.0225C31.2362 13.4477 31.4025 13.8948 31.5463 14.3601Z" fill="#3B535C"/>
<path id="Vector_51" d="M30.6842 17.1016C30.8945 17.5547 31.0714 18.0241 31.2134 18.5056C30.9172 18.1197 30.5929 17.7586 30.2434 17.4256C29.9037 17.1019 29.5406 16.8064 29.1572 16.542L29.9384 15.764C30.2191 16.1892 30.4684 16.6364 30.6842 17.1016Z" fill="#3B535C"/>
<path id="Vector_52" d="M36.0117 16.3667L36.2063 17.8202C37.2551 17.2768 38.147 16.4218 38.7825 15.3507C38.8996 16.164 38.9385 16.9887 38.8986 17.811C40.0652 17.629 40.9071 16.5241 41.6324 15.4975C41.8684 15.163 42.112 14.8109 42.1803 14.3932" fill="#54B9D3"/>
<path id="Vector_53" d="M36.6272 17.1642C36.562 17.617 36.4499 18.0655 36.2918 18.5056C36.2195 18.0609 36.1006 17.6211 35.9361 17.19C35.7761 16.771 35.5722 16.3618 35.3262 15.9661L36.6833 15.764C36.713 16.2311 36.6943 16.6992 36.6272 17.1642Z" fill="#3B535C"/>
<path id="Vector_54" d="M38.7179 17.1642C38.6853 17.617 38.6292 18.0655 38.5502 18.5056C38.5141 18.0609 38.4546 17.6211 38.3723 17.19C38.2924 16.771 38.1904 16.3618 38.0674 15.9661L38.7459 15.764C38.7608 16.2311 38.7514 16.6992 38.7179 17.1642Z" fill="#3B535C"/>
<path id="Vector_55" d="M39.9514 19.8764C39.7719 20.2938 39.5065 20.6546 39.1782 20.9275C38.8499 21.2005 38.4686 21.3774 38.0674 21.443C38.3954 21.6306 38.7326 21.8197 39.0947 21.8951C39.7671 22.0337 40.448 21.7647 41.081 21.4708C41.2621 21.3872 41.4687 21.2629 41.4924 21.0406C41.5094 20.8793 41.4149 20.7241 41.2956 20.639C41.1698 20.5632 41.0331 20.5144 40.8921 20.495C40.5405 20.4197 40.1705 20.321 39.916 20.0301" fill="#54B9D3"/>
<path id="Vector_56" d="M45.058 21.2472C44.9144 21.6646 44.7021 22.0254 44.4394 22.2983C44.1768 22.5713 43.8718 22.7482 43.5508 22.8137C43.8132 23.0014 44.0829 23.1905 44.3726 23.2659C44.9105 23.4045 45.4553 23.1355 45.9617 22.8416C46.1066 22.758 46.2719 22.6337 46.2908 22.4114C46.3044 22.2501 46.2288 22.0949 46.1333 22.0097C46.0327 21.934 45.9234 21.8852 45.8106 21.8658C45.5293 21.7905 45.2333 21.6918 45.0297 21.4009" fill="#54B9D3"/>
<path id="Vector_57" d="M38.7729 20.969C38.3194 21.0883 37.8543 21.1813 37.3818 21.2472C37.7813 21.0581 38.1605 20.8461 38.5161 20.613C38.8617 20.3866 39.1833 20.1403 39.4778 19.8764L40.1234 20.5244C39.689 20.6982 39.2375 20.8468 38.7729 20.969Z" fill="#3B535C"/>
<path id="Vector (Stroke)_10" fill-rule="evenodd" clip-rule="evenodd" d="M26.1245 10.6415L28.4998 16.8892L29.8426 16.3315L27.0507 8.98784C27.0507 8.98771 27.0506 8.98757 27.0506 8.98743C26.9562 8.73838 26.7853 8.5292 26.5647 8.39284C26.344 8.25641 26.0861 8.20063 25.8317 8.2343C25.5773 8.26797 25.3409 8.38917 25.1597 8.57881C24.9785 8.76844 24.8628 9.01572 24.8309 9.28166L24.8308 9.28199L24.0297 15.9826L17.6436 13.9109C17.6436 13.9109 17.6437 13.9109 17.6436 13.9109C17.433 13.8425 17.2079 13.8387 16.9952 13.8998C16.7824 13.9609 16.5909 14.0844 16.4432 14.2557C16.2956 14.427 16.1979 14.639 16.1619 14.8665C16.1258 15.0939 16.1528 15.3274 16.2397 15.5393C16.2397 15.5392 16.2397 15.5393 16.2397 15.5393L18.0524 19.9611L16.1348 20.4684L16.4893 21.9326L20.0468 20.9915L17.8153 15.548L25.2496 17.9598L26.1245 10.6415Z" fill="#274B5B"/>
<path id="Vector (Stroke)_11" fill-rule="evenodd" clip-rule="evenodd" d="M13.1215 22.5022L15.1731 21.9695L14.8258 20.5618L12.1908 21.2459C11.9829 21.2999 11.7943 21.4133 11.6468 21.573C11.4994 21.7327 11.3992 21.9321 11.358 22.148C11.3168 22.3638 11.3362 22.5872 11.414 22.7922C11.4918 22.9972 11.6248 23.1753 11.7974 23.3057L15.257 25.9164L12.2808 29.0399C12.2808 29.0399 12.2807 29.04 12.2806 29.0401C12.1604 29.1662 12.0698 29.3189 12.0156 29.4864C11.9615 29.654 11.9454 29.8321 11.9684 30.007C11.9915 30.182 12.0532 30.3492 12.1487 30.4961C12.2443 30.6429 12.3713 30.7654 12.52 30.8543L13.6462 31.5281L14.3592 30.2736L13.5474 29.788L16.4975 26.6919C16.4975 26.6919 16.4975 26.6919 16.4975 26.6919C16.4975 26.6919 16.4976 26.6918 16.4976 26.6917C16.6108 26.573 16.6978 26.4308 16.7528 26.2746C16.8078 26.1183 16.8295 25.9518 16.8163 25.7862C16.8032 25.6206 16.7556 25.4599 16.6767 25.3148C16.5978 25.1698 16.4895 25.0438 16.3591 24.9453C16.359 24.9453 16.3591 24.9454 16.3591 24.9453L13.1215 22.5022ZM13.2326 29.5996C13.2327 29.5996 13.2327 29.5997 13.2328 29.5997L13.2326 29.5996Z" fill="#274B5B"/>
<path id="Vector (Stroke)_12" fill-rule="evenodd" clip-rule="evenodd" d="M14.9376 30.8427L16.619 31.772C16.619 31.7721 16.6191 31.7721 16.6192 31.7722C16.6193 31.7722 16.6194 31.7723 16.6194 31.7723C16.8779 31.9151 17.0727 32.1418 17.1673 32.4102C17.2621 32.6787 17.2502 32.9707 17.1339 33.2316L17.1329 33.2337L15.7967 36.2045L20.138 35.9125L20.2476 37.3677L15.4008 37.6937C15.1898 37.7079 14.9783 37.6706 14.7869 37.5853C14.5956 37.5001 14.4306 37.3698 14.3079 37.2069C14.1852 37.0441 14.1088 36.8542 14.0862 36.6555C14.0636 36.4571 14.0952 36.2565 14.1781 36.073C14.1783 36.0727 14.1784 36.0724 14.1786 36.072L15.6046 32.9015L14.1579 32.1019L14.9376 30.8427Z" fill="#274B5B"/>
<path id="Vector (Stroke)_13" fill-rule="evenodd" clip-rule="evenodd" d="M31.8674 8.38421C32.092 8.25478 32.3545 8.20186 32.6135 8.23381C32.8724 8.26575 33.113 8.38073 33.2975 8.56063C33.4819 8.74054 33.5997 8.97512 33.6322 9.22741L33.9548 11.745L32.4954 11.9225L32.3132 10.501L29.8345 16.4495L28.4717 15.9105L31.3742 8.94497C31.4705 8.71017 31.6439 8.51297 31.8674 8.38421Z" fill="#274B5B"/>
<path id="Vector (Stroke)_14" fill-rule="evenodd" clip-rule="evenodd" d="M34.9654 15.7924L34.7057 13.7079L33.2695 13.8877L33.7435 17.691L41.1933 15.3753L38.9576 20.6035L41.4938 21.2472L41.8491 19.841L40.9553 19.6141L42.7714 15.3672C42.8585 15.1636 42.8856 14.9393 42.8495 14.7208C42.8134 14.5023 42.7156 14.2987 42.5677 14.1342C42.4197 13.9697 42.2279 13.851 42.0148 13.7923C41.8018 13.7337 41.5765 13.7373 41.3655 13.803C41.3655 13.803 41.3656 13.8029 41.3655 13.803C41.3655 13.803 41.3653 13.803 41.3653 13.803L34.9654 15.7924Z" fill="#274B5B"/>
<path id="Vector (Stroke)_15" fill-rule="evenodd" clip-rule="evenodd" d="M43.255 20.5618L44.2636 20.8128L46.7914 21.4459C46.7917 21.4459 46.7919 21.446 46.7921 21.446C47.0039 21.4989 47.1962 21.6098 47.3464 21.7659C47.4969 21.9222 47.5991 22.1173 47.6411 22.3285C47.6832 22.5397 47.6634 22.7583 47.584 22.9589C47.5046 23.1595 47.369 23.3337 47.1928 23.4613L43.6639 26.0164L46.7008 29.0734C46.8233 29.1968 46.9155 29.3462 46.9706 29.51C47.0257 29.6738 47.042 29.8478 47.0185 30.0188C46.995 30.1898 46.9322 30.3532 46.8348 30.4968C46.7375 30.6403 46.6082 30.7601 46.4568 30.8471L43.0154 32.8223L43.4009 33.713L42.0721 34.2696L41.5852 33.1447L41.5847 33.1435C41.4759 32.8894 41.4648 32.605 41.5534 32.3435C41.642 32.0819 41.8243 31.861 42.0663 31.7219L45.4074 29.8044L42.3982 26.7753C42.3981 26.7752 42.3981 26.7751 42.398 26.7751C42.2826 26.6589 42.1938 26.5197 42.1377 26.3669C42.0816 26.2141 42.0594 26.0511 42.0728 25.8891C42.0862 25.7271 42.1348 25.5698 42.2153 25.4278C42.2958 25.2859 42.4063 25.1627 42.5393 25.0664C42.5392 25.0664 42.5393 25.0664 42.5393 25.0664C42.5393 25.0664 42.5395 25.0663 42.5395 25.0663L45.8428 22.6745L42.9008 21.9393L43.255 20.5618ZM46.4372 22.8234C46.4369 22.8233 46.4365 22.8232 46.4362 22.8231L46.4372 22.8234Z" fill="#274B5B"/>
<path id="Vector (Stroke)_16" fill-rule="evenodd" clip-rule="evenodd" d="M43.7112 34.9551L44.146 36.041C44.1461 36.0413 44.1462 36.0415 44.1463 36.0418C44.2214 36.2289 44.2501 36.4333 44.2297 36.6356C44.2091 36.8381 44.14 37.0317 44.0289 37.1976C43.9178 37.3635 43.7684 37.4963 43.5951 37.5832C43.4218 37.6701 43.2304 37.7081 43.0393 37.6937L43.0238 37.6925L38.7529 37.1665L38.9138 35.6897L42.6708 36.1524L42.4246 35.5374L43.7112 34.9551ZM42.8604 36.6258C42.8602 36.6254 42.8601 36.625 42.8599 36.6246L42.8604 36.6258Z" fill="#274B5B"/>
<path id="Vector_58" d="M44.2563 22.3397C43.8028 22.459 43.3377 22.5521 42.8652 22.618C43.2647 22.4289 43.6439 22.2169 43.9995 21.9838C44.3451 21.7573 44.6667 21.5111 44.9612 21.2472L45.6068 21.8951C45.1724 22.0689 44.7209 22.2176 44.2563 22.3397Z" fill="#3B535C"/>
<path id="Vector_59" d="M33.0695 24.1021C33.213 24.1436 33.3505 24.195 33.4801 24.2556C33.5857 24.3052 33.6837 24.3627 33.7727 24.427C33.9235 24.5385 33.9819 24.6305 33.9428 24.6615C33.9037 24.6924 33.7755 24.6639 33.5952 24.6073L33.285 24.5068C33.1716 24.4701 33.0423 24.4306 32.9079 24.3916C32.7735 24.3525 32.6431 24.3195 32.524 24.289L32.2024 24.2075C32.017 24.1599 31.8957 24.1192 31.8985 24.0752C31.9013 24.0313 32.0312 23.9938 32.2472 23.9893C32.3734 23.9867 32.4996 23.9935 32.6238 24.0097C32.7762 24.03 32.9255 24.0609 33.0695 24.1021Z" fill="white"/>
<path id="Vector_60" d="M35.1557 25.8726C35.2381 26.0444 35.294 26.2395 35.3196 26.4448C35.3362 26.6043 35.3196 26.7107 35.2809 26.7278C35.2423 26.745 35.1885 26.6724 35.1263 26.5617C35.064 26.4509 34.9913 26.2847 34.9097 26.1113C34.8281 25.9379 34.7528 25.779 34.7017 25.6532C34.6507 25.5275 34.6244 25.4316 34.6514 25.3846C34.6785 25.3375 34.752 25.3574 34.849 25.44C34.9715 25.5513 35.0761 25.6988 35.1557 25.8726Z" fill="white"/>
<path id="Vector_61" d="M42.7496 31.0299C43.1333 30.8529 43.4987 30.7985 43.5453 30.8793C43.5918 30.9601 43.3211 31.143 42.9567 31.3119C42.5923 31.4807 42.2563 31.5769 42.1905 31.5028C42.1247 31.4288 42.3655 31.206 42.7496 31.0299Z" fill="white"/>
<path id="Vector_62" d="M44.8851 30.398C45.0428 30.3194 45.1239 30.1618 45.0662 30.0461C45.0085 29.9304 44.8339 29.9003 44.6762 29.9789C44.5185 30.0575 44.4374 30.215 44.4951 30.3308C44.5527 30.4465 44.7273 30.4766 44.8851 30.398Z" fill="white"/>
<path id="Vector_63" d="M43.0782 24.4196C43.3476 24.1601 43.4933 23.8743 43.4036 23.7811C43.3139 23.688 43.0228 23.8229 42.7534 24.0824C42.484 24.3419 42.3383 24.6278 42.4281 24.7209C42.5178 24.814 42.8089 24.6791 43.0782 24.4196Z" fill="white"/>
<path id="Vector_64" d="M25.1662 37.748C25.356 37.8019 25.5235 37.9072 25.6466 38.05C25.7383 38.1655 25.7525 38.2703 25.6992 38.3269C25.6459 38.3836 25.5385 38.3908 25.4123 38.3743C25.1173 38.3213 24.8308 38.2346 24.5595 38.116C24.4474 38.0608 24.3651 37.9984 24.3596 37.9216C24.3542 37.8448 24.4333 37.7709 24.5822 37.7279C24.7746 37.6802 24.9783 37.6872 25.1662 37.748Z" fill="white"/>
<path id="Vector_65" d="M27.7017 37.0596C27.8909 37.0293 28.0829 37.0132 28.2754 37.0114C28.4334 37.0099 28.5912 37.0212 28.7466 37.0452C29.0112 37.0883 29.1647 37.16 29.1573 37.2174C29.1499 37.2748 28.9883 37.3179 28.7426 37.3546C28.6194 37.3724 28.4733 37.3925 28.3151 37.412C28.1569 37.4316 27.9825 37.4591 27.8007 37.4884C27.6189 37.5177 27.4473 37.5504 27.2897 37.5791C27.1322 37.6078 26.9894 37.6365 26.8669 37.6583C26.6225 37.7014 26.4555 37.7157 26.4219 37.6612C26.3882 37.6066 26.5007 37.4936 26.7282 37.3707C26.8618 37.2998 27.0029 37.2398 27.1497 37.1916C27.3289 37.134 27.5136 37.0899 27.7017 37.0596Z" fill="white"/>
<path id="Vector_66" opacity="0.5" d="M36.0115 30.8427H30.5283V31.5281H36.0115V30.8427Z" fill="#EF997B"/>
<path id="Vector (Stroke)_17" fill-rule="evenodd" clip-rule="evenodd" d="M36.0115 31.5281H30.5283V30.1573H36.0115V31.5281Z" fill="#274B5B"/>
<path id="Vector_67" opacity="0.5" d="M28.4714 30.8427H22.9883V31.5281H28.4714V30.8427Z" fill="#EF997B"/>
<path id="Vector (Stroke)_18" fill-rule="evenodd" clip-rule="evenodd" d="M28.4714 31.5281H22.9883V30.1573H28.4714V31.5281Z" fill="#274B5B"/>
<path id="Vector (Stroke)_19" fill-rule="evenodd" clip-rule="evenodd" d="M20.0291 33.9999C19.8586 33.9881 19.686 34.0078 19.5354 34.0561C19.3848 34.1045 19.2635 34.1791 19.1884 34.2697L17.5059 33.7894C17.7508 33.494 18.1463 33.2507 18.6375 33.0931C19.1287 32.9354 19.6914 32.8714 20.2474 32.9097L20.0291 33.9999Z" fill="#274B5B"/>
<path id="Vector (Stroke)_20" fill-rule="evenodd" clip-rule="evenodd" d="M38.7529 32.9097C39.17 32.8714 39.5919 32.9354 39.9604 33.0931C40.3288 33.2507 40.6254 33.494 40.8091 33.7894L39.5472 34.2697C39.4909 34.1791 39.3999 34.1045 39.2869 34.0561C39.174 34.0078 39.0446 33.9881 38.9167 33.9999L38.7529 32.9097Z" fill="#274B5B"/>
</g>
</g>
</g>
</g>
</g>
<defs>
<clipPath id="clip0_187_3181">
<rect width="60" height="60" fill="white"/>
</clipPath>
</defs>
</svg>
