<svg width="41" height="51" viewBox="0 0 41 51" fill="none" xmlns="http://www.w3.org/2000/svg">
<path id="Vector" d="M20.5 14.3438V0H5.125C3.76577 0 2.4622 0.503738 1.50108 1.4004C0.539953 2.29705 0 3.51318 0 4.78125V46.2188C0 47.4868 0.539953 48.7029 1.50108 49.5996C2.4622 50.4963 3.76577 51 5.125 51H35.875C37.2342 51 38.5378 50.4963 39.4989 49.5996C40.46 48.7029 41 47.4868 41 46.2188V19.125H25.625C24.2658 19.125 22.9622 18.6213 22.0011 17.7246C21.04 16.8279 20.5 15.6118 20.5 14.3438ZM20.5 31.875C20.9531 31.875 21.3876 32.0429 21.708 32.3418C22.0284 32.6407 22.2083 33.0461 22.2083 33.4688V43.0312C22.2083 43.4539 22.0284 43.8593 21.708 44.1582C21.3876 44.4571 20.9531 44.625 20.5 44.625C20.0469 44.625 19.6124 44.4571 19.292 44.1582C18.9717 43.8593 18.7917 43.4539 18.7917 43.0312V33.4688C18.7917 33.0461 18.9717 32.6407 19.292 32.3418C19.6124 32.0429 20.0469 31.875 20.5 31.875ZM11.9583 19.125C12.4114 19.125 12.8459 19.2929 13.1663 19.5918C13.4867 19.8907 13.6667 20.2961 13.6667 20.7188V43.0312C13.6667 43.4539 13.4867 43.8593 13.1663 44.1582C12.8459 44.4571 12.4114 44.625 11.9583 44.625C11.5053 44.625 11.0707 44.4571 10.7504 44.1582C10.43 43.8593 10.25 43.4539 10.25 43.0312V20.7188C10.25 20.2961 10.43 19.8907 10.7504 19.5918C11.0707 19.2929 11.5053 19.125 11.9583 19.125ZM29.0417 25.5C29.4947 25.5 29.9293 25.6679 30.2496 25.9668C30.57 26.2657 30.75 26.6711 30.75 27.0938V43.0312C30.75 43.4539 30.57 43.8593 30.2496 44.1582C29.9293 44.4571 29.4947 44.625 29.0417 44.625C28.5886 44.625 28.1541 44.4571 27.8337 44.1582C27.5133 43.8593 27.3333 43.4539 27.3333 43.0312V27.0938C27.3333 26.6711 27.5133 26.2657 27.8337 25.9668C28.1541 25.6679 28.5886 25.5 29.0417 25.5ZM23.9167 14.3438V0.796875L40.1458 15.9375H25.625C25.1719 15.9375 24.7374 15.7696 24.417 15.4707C24.0967 15.1718 23.9167 14.7664 23.9167 14.3438Z" fill="#1A5796"/>
</svg>
