<svg width="19" height="15" viewBox="0 0 19 15" fill="none" xmlns="http://www.w3.org/2000/svg">
<path d="M12.1724 7.23557C12.1724 7.94433 11.8909 8.62407 11.3897 9.12524C10.8885 9.62641 10.2088 9.90796 9.50003 9.90796C8.79127 9.90796 8.11153 9.62641 7.61036 9.12524C7.10919 8.62407 6.82764 7.94433 6.82764 7.23557C6.82764 6.5268 7.10919 5.84707 7.61036 5.3459C8.11153 4.84473 8.79127 4.56317 9.50003 4.56317C10.2088 4.56317 10.8885 4.84473 11.3897 5.3459C11.8909 5.84707 12.1724 6.5268 12.1724 7.23557Z" stroke="#6A6C7A" stroke-width="2" stroke-linecap="round" stroke-linejoin="round"/>
<path d="M1 7.23559C2.13488 3.62162 5.51189 1 9.5 1C13.489 1 16.8651 3.62162 18 7.23559C16.8651 10.8496 13.489 13.4712 9.5 13.4712C5.51189 13.4712 2.13488 10.8496 1 7.23559Z" stroke="#6A6C7A" stroke-width="2" stroke-linecap="round" stroke-linejoin="round"/>
</svg>
