<svg width="19" height="18" viewBox="0 0 19 18" fill="none" xmlns="http://www.w3.org/2000/svg">
<path d="M1 8.79488C1 5.70072 1 4.15324 1.96164 3.19241C2.92246 2.23077 4.46995 2.23077 7.5641 2.23077H10.8462C13.9403 2.23077 15.4878 2.23077 16.4486 3.19241C17.4103 4.15324 17.4103 5.70072 17.4103 8.79488V10.4359C17.4103 13.5301 17.4103 15.0775 16.4486 16.0384C15.4878 17 13.9403 17 10.8462 17H7.5641C4.46995 17 2.92246 17 1.96164 16.0384C1 15.0775 1 13.5301 1 10.4359V8.79488Z" stroke="#6A6C7A" stroke-width="1.5"/>
<path d="M5.10246 2.23077V1M13.3076 2.23077V1M1.41016 6.33333H16.9999" stroke="#6A6C7A" stroke-width="1.5" stroke-linecap="round"/>
<path d="M14.1281 12.8974C14.1281 13.115 14.0417 13.3237 13.8878 13.4776C13.7339 13.6315 13.5252 13.7179 13.3076 13.7179C13.09 13.7179 12.8813 13.6315 12.7274 13.4776C12.5736 13.3237 12.4871 13.115 12.4871 12.8974C12.4871 12.6798 12.5736 12.4711 12.7274 12.3172C12.8813 12.1634 13.09 12.0769 13.3076 12.0769C13.5252 12.0769 13.7339 12.1634 13.8878 12.3172C14.0417 12.4711 14.1281 12.6798 14.1281 12.8974ZM14.1281 9.61537C14.1281 9.83299 14.0417 10.0417 13.8878 10.1956C13.7339 10.3494 13.5252 10.4359 13.3076 10.4359C13.09 10.4359 12.8813 10.3494 12.7274 10.1956C12.5736 10.0417 12.4871 9.83299 12.4871 9.61537C12.4871 9.39776 12.5736 9.18906 12.7274 9.03518C12.8813 8.88131 13.09 8.79486 13.3076 8.79486C13.5252 8.79486 13.7339 8.88131 13.8878 9.03518C14.0417 9.18906 14.1281 9.39776 14.1281 9.61537ZM10.0256 12.8974C10.0256 13.115 9.93913 13.3237 9.78525 13.4776C9.63137 13.6315 9.42267 13.7179 9.20506 13.7179C8.98745 13.7179 8.77875 13.6315 8.62487 13.4776C8.47099 13.3237 8.38455 13.115 8.38455 12.8974C8.38455 12.6798 8.47099 12.4711 8.62487 12.3172C8.77875 12.1634 8.98745 12.0769 9.20506 12.0769C9.42267 12.0769 9.63137 12.1634 9.78525 12.3172C9.93913 12.4711 10.0256 12.6798 10.0256 12.8974ZM10.0256 9.61537C10.0256 9.83299 9.93913 10.0417 9.78525 10.1956C9.63137 10.3494 9.42267 10.4359 9.20506 10.4359C8.98745 10.4359 8.77875 10.3494 8.62487 10.1956C8.47099 10.0417 8.38455 9.83299 8.38455 9.61537C8.38455 9.39776 8.47099 9.18906 8.62487 9.03518C8.77875 8.88131 8.98745 8.79486 9.20506 8.79486C9.42267 8.79486 9.63137 8.88131 9.78525 9.03518C9.93913 9.18906 10.0256 9.39776 10.0256 9.61537ZM5.92301 12.8974C5.92301 13.115 5.83656 13.3237 5.68269 13.4776C5.52881 13.6315 5.32011 13.7179 5.1025 13.7179C4.88488 13.7179 4.67618 13.6315 4.52231 13.4776C4.36843 13.3237 4.28198 13.115 4.28198 12.8974C4.28198 12.6798 4.36843 12.4711 4.52231 12.3172C4.67618 12.1634 4.88488 12.0769 5.1025 12.0769C5.32011 12.0769 5.52881 12.1634 5.68269 12.3172C5.83656 12.4711 5.92301 12.6798 5.92301 12.8974ZM5.92301 9.61537C5.92301 9.83299 5.83656 10.0417 5.68269 10.1956C5.52881 10.3494 5.32011 10.4359 5.1025 10.4359C4.88488 10.4359 4.67618 10.3494 4.52231 10.1956C4.36843 10.0417 4.28198 9.83299 4.28198 9.61537C4.28198 9.39776 4.36843 9.18906 4.52231 9.03518C4.67618 8.88131 4.88488 8.79486 5.1025 8.79486C5.32011 8.79486 5.52881 8.88131 5.68269 9.03518C5.83656 9.18906 5.92301 9.39776 5.92301 9.61537Z" fill="#6A6C7A"/>
</svg>
