<svg width="33" height="24" viewBox="0 0 33 24" fill="none" xmlns="http://www.w3.org/2000/svg">
<path d="M20.9648 12.2356C20.9648 13.399 20.4898 14.5147 19.6443 15.3374C18.7987 16.1601 17.6519 16.6222 16.4562 16.6222C15.2604 16.6222 14.1136 16.1601 13.2681 15.3374C12.4225 14.5147 11.9475 13.399 11.9475 12.2356C11.9475 11.0721 12.4225 9.95637 13.2681 9.13371C14.1136 8.31104 15.2604 7.84888 16.4562 7.84888C17.6519 7.84888 18.7987 8.31104 19.6443 9.13371C20.4898 9.95637 20.9648 11.0721 20.9648 12.2356Z" stroke="#1A5796" stroke-width="3" stroke-linecap="round" stroke-linejoin="round"/>
<path d="M2.11548 12.2356C4.03016 6.30333 9.72761 2 16.456 2C23.186 2 28.8819 6.30333 30.7966 12.2356C28.8819 18.1678 23.186 22.4712 16.456 22.4712C9.72761 22.4712 4.03016 18.1678 2.11548 12.2356Z" stroke="#1A5796" stroke-width="3" stroke-linecap="round" stroke-linejoin="round"/>
</svg>
