<svg width="29" height="28" viewBox="0 0 29 28" fill="none" xmlns="http://www.w3.org/2000/svg">
<path d="M2 13.875C2 9.16128 2 6.80378 3.465 5.34003C4.92875 3.87503 7.28625 3.87503 12 3.87503H17C21.7137 3.87503 24.0712 3.87503 25.535 5.34003C27 6.80378 27 9.16128 27 13.875V16.375C27 21.0888 27 23.4463 25.535 24.91C24.0712 26.375 21.7137 26.375 17 26.375H12C7.28625 26.375 4.92875 26.375 3.465 24.91C2 23.4463 2 21.0888 2 16.375V13.875Z" stroke="#1A5796" stroke-width="3"/>
<path d="M8.25 3.875V2M20.75 3.875V2M2.625 10.125H26.375" stroke="#1A5796" stroke-width="3" stroke-linecap="round"/>
<path d="M22.0001 20.125C22.0001 20.4565 21.8684 20.7745 21.634 21.0089C21.3996 21.2433 21.0816 21.375 20.7501 21.375C20.4186 21.375 20.1007 21.2433 19.8662 21.0089C19.6318 20.7745 19.5001 20.4565 19.5001 20.125C19.5001 19.7935 19.6318 19.4755 19.8662 19.2411C20.1007 19.0067 20.4186 18.875 20.7501 18.875C21.0816 18.875 21.3996 19.0067 21.634 19.2411C21.8684 19.4755 22.0001 19.7935 22.0001 20.125ZM22.0001 15.125C22.0001 15.4565 21.8684 15.7745 21.634 16.0089C21.3996 16.2433 21.0816 16.375 20.7501 16.375C20.4186 16.375 20.1007 16.2433 19.8662 16.0089C19.6318 15.7745 19.5001 15.4565 19.5001 15.125C19.5001 14.7935 19.6318 14.4755 19.8662 14.2411C20.1007 14.0067 20.4186 13.875 20.7501 13.875C21.0816 13.875 21.3996 14.0067 21.634 14.2411C21.8684 14.4755 22.0001 14.7935 22.0001 15.125ZM15.7501 20.125C15.7501 20.4565 15.6184 20.7745 15.384 21.0089C15.1496 21.2433 14.8316 21.375 14.5001 21.375C14.1686 21.375 13.8507 21.2433 13.6162 21.0089C13.3818 20.7745 13.2501 20.4565 13.2501 20.125C13.2501 19.7935 13.3818 19.4755 13.6162 19.2411C13.8507 19.0067 14.1686 18.875 14.5001 18.875C14.8316 18.875 15.1496 19.0067 15.384 19.2411C15.6184 19.4755 15.7501 19.7935 15.7501 20.125ZM15.7501 15.125C15.7501 15.4565 15.6184 15.7745 15.384 16.0089C15.1496 16.2433 14.8316 16.375 14.5001 16.375C14.1686 16.375 13.8507 16.2433 13.6162 16.0089C13.3818 15.7745 13.2501 15.4565 13.2501 15.125C13.2501 14.7935 13.3818 14.4755 13.6162 14.2411C13.8507 14.0067 14.1686 13.875 14.5001 13.875C14.8316 13.875 15.1496 14.0067 15.384 14.2411C15.6184 14.4755 15.7501 14.7935 15.7501 15.125ZM9.50012 20.125C9.50012 20.4565 9.36843 20.7745 9.13401 21.0089C8.89959 21.2433 8.58164 21.375 8.25012 21.375C7.9186 21.375 7.60066 21.2433 7.36624 21.0089C7.13182 20.7745 7.00012 20.4565 7.00012 20.125C7.00012 19.7935 7.13182 19.4755 7.36624 19.2411C7.60066 19.0067 7.9186 18.875 8.25012 18.875C8.58164 18.875 8.89959 19.0067 9.13401 19.2411C9.36843 19.4755 9.50012 19.7935 9.50012 20.125ZM9.50012 15.125C9.50012 15.4565 9.36843 15.7745 9.13401 16.0089C8.89959 16.2433 8.58164 16.375 8.25012 16.375C7.9186 16.375 7.60066 16.2433 7.36624 16.0089C7.13182 15.7745 7.00012 15.4565 7.00012 15.125C7.00012 14.7935 7.13182 14.4755 7.36624 14.2411C7.60066 14.0067 7.9186 13.875 8.25012 13.875C8.58164 13.875 8.89959 14.0067 9.13401 14.2411C9.36843 14.4755 9.50012 14.7935 9.50012 15.125Z" fill="#1A5796"/>
</svg>
