<svg width="43" height="49" viewBox="0 0 43 49" fill="none" xmlns="http://www.w3.org/2000/svg">
<path id="Vector" d="M43 34.4531V2.29688C43 1.02402 41.973 0 40.6964 0H9.21429C4.12723 0 0 4.11523 0 9.1875V39.8125C0 44.8848 4.12723 49 9.21429 49H40.6964C41.973 49 43 47.976 43 46.7031V45.1719C43 44.4541 42.6641 43.8033 42.1458 43.3822C41.7426 41.9084 41.7426 37.707 42.1458 36.2332C42.6641 35.8217 43 35.1709 43 34.4531ZM12.2857 12.8242C12.2857 12.5084 12.5449 12.25 12.8616 12.25H33.2098C33.5266 12.25 33.7857 12.5084 33.7857 12.8242V14.7383C33.7857 15.0541 33.5266 15.3125 33.2098 15.3125H12.8616C12.5449 15.3125 12.2857 15.0541 12.2857 14.7383V12.8242ZM12.2857 18.9492C12.2857 18.6334 12.5449 18.375 12.8616 18.375H33.2098C33.5266 18.375 33.7857 18.6334 33.7857 18.9492V20.8633C33.7857 21.1791 33.5266 21.4375 33.2098 21.4375H12.8616C12.5449 21.4375 12.2857 21.1791 12.2857 20.8633V18.9492ZM36.6076 42.875H9.21429C7.5154 42.875 6.14286 41.5064 6.14286 39.8125C6.14286 38.1281 7.525 36.75 9.21429 36.75H36.6076C36.4252 38.3865 36.4252 41.2385 36.6076 42.875Z" fill="#5A5C6B"/>
</svg>
