<svg width="42" height="37" viewBox="0 0 42 37" fill="none" xmlns="http://www.w3.org/2000/svg">
<path id="Vector" d="M14.9809 19.2744C14.7387 19.0219 14.4491 18.8206 14.1288 18.6821C13.8086 18.5436 13.4641 18.4707 13.1156 18.4676C12.767 18.4646 12.4213 18.5314 12.0987 18.6643C11.7761 18.7972 11.4831 18.9935 11.2366 19.2416C10.9901 19.4897 10.7952 19.7848 10.6632 20.1096C10.5312 20.4344 10.4648 20.7824 10.4678 21.1333C10.4709 21.4843 10.5433 21.8311 10.6809 22.1535C10.8184 22.4759 11.0184 22.7676 11.2691 23.0114L19.1441 30.9399C19.6364 31.4354 20.3039 31.7137 21 31.7137C21.6961 31.7137 22.3636 31.4354 22.8559 30.9399L30.7309 23.0114C31.209 22.5129 31.4736 21.8453 31.4676 21.1524C31.4617 20.4594 31.1856 19.7966 30.6989 19.3066C30.2122 18.8165 29.5538 18.5386 28.8656 18.5326C28.1773 18.5266 27.5142 18.7929 27.0191 19.2744L23.625 22.6916V7.92857H36.75C38.1424 7.92857 39.4777 8.48546 40.4623 9.47672C41.4469 10.468 42 11.8124 42 13.2143V31.7143C42 33.1161 41.4469 34.4606 40.4623 35.4518C39.4777 36.4431 38.1424 37 36.75 37H5.25C3.85761 37 2.52226 36.4431 1.53769 35.4518C0.553123 34.4606 0 33.1161 0 31.7143V13.2143C0 11.8124 0.553123 10.468 1.53769 9.47672C2.52226 8.48546 3.85761 7.92857 5.25 7.92857H18.375V22.6916L14.9809 19.2744ZM18.375 2.64286C18.375 1.94193 18.6516 1.26971 19.1438 0.774075C19.6361 0.278443 20.3038 0 21 0C21.6962 0 22.3639 0.278443 22.8562 0.774075C23.3484 1.26971 23.625 1.94193 23.625 2.64286V7.92857H18.375V2.64286Z" fill="#1A5796"/>
</svg>
