<?xml version="1.0" standalone="no"?>
<!DOCTYPE svg PUBLIC "-//W3C//DTD SVG 20010904//EN"
 "http://www.w3.org/TR/2001/REC-SVG-20010904/DTD/svg10.dtd">
<svg version="1.0" xmlns="http://www.w3.org/2000/svg"
 width="46.000000pt" height="49.000000pt" viewBox="0 0 46.000000 49.000000"
 preserveAspectRatio="xMidYMid meet">

<g transform="translate(0.000000,49.000000) scale(0.100000,-0.100000)"
fill="#1A5796" stroke="none">
<path d="M370 465 c-10 -12 -6 -22 21 -56 30 -38 33 -40 46 -23 20 27 16 72
-6 84 -27 14 -46 13 -61 -5z"/>
<path d="M254 345 c-69 -78 -69 -78 -78 -128 l-7 -38 38 7 c50 9 51 9 118 82
l58 63 -29 32 c-16 18 -32 36 -35 40 -4 5 -33 -21 -65 -58z"/>
<path d="M50 393 c-35 -13 -40 -35 -40 -193 0 -139 2 -159 18 -173 16 -14 44
-17 179 -17 201 0 193 -6 193 146 l0 109 -51 -57 c-40 -46 -61 -61 -101 -73
-68 -20 -84 -19 -109 6 -19 19 -21 29 -16 86 6 59 11 70 52 119 l47 54 -79 -1
c-43 0 -85 -3 -93 -6z"/>
</g>
</svg>
