<svg width="40" height="32" viewBox="0 0 40 32" fill="none" xmlns="http://www.w3.org/2000/svg">
<path id="Vector" fill-rule="evenodd" clip-rule="evenodd" d="M2.29386 2.29386C-2.33318e-07 4.58575 0 8.27706 0 15.6577C0 23.0384 -2.33318e-07 26.7297 2.29386 29.0216C4.58575 31.3154 8.27706 31.3154 15.6577 31.3154H23.4866C30.8672 31.3154 34.5585 31.3154 36.8504 29.0216C39.1443 26.7297 39.1443 23.0384 39.1443 15.6577C39.1443 8.27706 39.1443 4.58575 36.8504 2.29386C34.5585 -2.33318e-07 30.8672 0 23.4866 0H15.6577C8.27706 0 4.58575 -2.33318e-07 2.29386 2.29386ZM32.4428 6.88939C32.6918 7.18843 32.812 7.57413 32.7767 7.9617C32.7415 8.34927 32.5538 8.70699 32.2549 8.95621L27.9569 12.5379C26.2208 13.9863 24.8155 15.1567 23.5727 15.9552C22.2809 16.787 21.0224 17.3116 19.5721 17.3116C18.1218 17.3116 16.8634 16.7851 15.5696 15.9552C14.3288 15.1567 12.9235 13.9843 11.1874 12.5399L6.88939 8.95817C6.59014 8.70901 6.40212 8.35118 6.3667 7.96339C6.33128 7.5756 6.45136 7.18963 6.70052 6.89037C6.94968 6.59112 7.30752 6.4031 7.69531 6.36768C8.08309 6.33226 8.46907 6.45234 8.76832 6.7015L12.9959 10.2225C14.822 11.7433 16.0883 12.7963 17.1609 13.4852C18.1962 14.1507 18.8989 14.3757 19.5741 14.3757C20.2493 14.3757 20.952 14.1526 21.9873 13.4852C23.0579 12.7963 24.3262 11.7433 26.1523 10.2225L30.3779 6.69954C30.6772 6.45072 31.0631 6.33094 31.4506 6.36654C31.8382 6.40214 32.1938 6.59021 32.4428 6.88939Z" fill="#EBF3F5"/>
</svg>
