<svg width="29" height="24" viewBox="0 0 29 24" fill="none" xmlns="http://www.w3.org/2000/svg">
<path fill-rule="evenodd" clip-rule="evenodd" d="M1.68659 1.8924C-1.753e-07 3.57755 0 6.29163 0 11.7184C0 17.1451 -1.753e-07 19.8592 1.68659 21.5443C3.37174 23.2309 6.08582 23.2309 11.5125 23.2309H17.2688C22.6955 23.2309 25.4096 23.2309 27.0948 21.5443C28.7813 19.8592 28.7814 17.1451 28.7814 11.7184C28.7814 6.29163 28.7813 3.57755 27.0948 1.8924C25.4096 0.20581 22.6955 0.205811 17.2688 0.205811H11.5125C6.08582 0.205811 3.37174 0.20581 1.68659 1.8924ZM23.854 5.27133C24.0371 5.4912 24.1254 5.77479 24.0995 6.05976C24.0736 6.34472 23.9356 6.60774 23.7158 6.79098L20.5556 9.42448C19.2792 10.4894 18.2459 11.3499 17.3321 11.9371C16.3823 12.5487 15.457 12.9344 14.3907 12.9344C13.3243 12.9344 12.399 12.5473 11.4478 11.9371C10.5354 11.3499 9.50216 10.4879 8.22571 9.42592L5.06552 6.79242C4.84549 6.60922 4.70725 6.34612 4.6812 6.061C4.65516 5.77587 4.74345 5.49208 4.92665 5.27205C5.10985 5.05202 5.37295 4.91378 5.65807 4.88773C5.9432 4.86169 6.22699 4.94998 6.44702 5.13318L9.55541 7.72206C10.8981 8.84021 11.8291 9.61443 12.6177 10.121C13.379 10.6103 13.8956 10.7758 14.3921 10.7758C14.8886 10.7758 15.4052 10.6117 16.1665 10.121C16.9537 9.61443 17.8862 8.84021 19.2288 7.72206L22.3358 5.13174C22.5558 4.94879 22.8395 4.86072 23.1245 4.88689C23.4095 4.91307 23.6709 5.05135 23.854 5.27133Z" fill="#1A5796"/>
</svg>
