<svg width="48" height="48" viewBox="0 0 48 48" fill="none" xmlns="http://www.w3.org/2000/svg">
<g id="entypo:folder">
<path id="Vector" d="M44.1724 11.5176C43.906 10.4616 42.6004 9.59999 41.2684 9.59999H24.9148C23.5852 9.59999 21.7228 8.83679 20.782 7.90319L19.3516 6.49199C18.4108 5.55839 16.5508 4.79999 15.2212 4.79999H7.40918C6.07718 4.79999 4.86758 5.87279 4.72118 7.18559L4.02038 14.4H44.6548L44.1724 11.5176ZM46.5892 16.8H1.41158C1.21773 16.8001 1.02604 16.8407 0.848796 16.9192C0.671551 16.9977 0.512656 17.1124 0.382291 17.2559C0.251926 17.3993 0.152964 17.5685 0.0917446 17.7524C0.0305253 17.9363 0.00839816 18.131 0.0267807 18.324L2.24198 41.5296C2.28611 41.9867 2.49883 42.4109 2.83868 42.7197C3.17854 43.0285 3.62119 43.1997 4.08038 43.2H43.9204C44.3796 43.1997 44.8222 43.0285 45.1621 42.7197C45.5019 42.4109 45.7146 41.9867 45.7588 41.5296L47.974 18.324C47.9924 18.131 47.9702 17.9363 47.909 17.7524C47.8478 17.5685 47.7488 17.3993 47.6185 17.2559C47.4881 17.1124 47.3292 16.9977 47.152 16.9192C46.9747 16.8407 46.783 16.8001 46.5892 16.8Z" fill="#1A5796"/>
</g>
</svg>
