<svg width="40" height="26" viewBox="0 0 40 26" fill="none" xmlns="http://www.w3.org/2000/svg">
<path fill-rule="evenodd" clip-rule="evenodd" d="M0 2.50246C0 1.13677 1.07721 0.0296631 2.40602 0.0296631H37.594C38.9228 0.0296631 40 1.13677 40 2.50246C40 3.86815 38.9228 4.97527 37.594 4.97527H2.40602C1.07721 4.97527 0 3.86815 0 2.50246ZM0 12.5482C0 11.1825 1.07721 10.0754 2.40602 10.0754H37.594C38.9228 10.0754 40 11.1825 40 12.5482C40 13.9139 38.9228 15.021 37.594 15.021H2.40602C1.07721 15.021 0 13.9139 0 12.5482ZM0 22.594C0 21.2283 1.07721 20.1212 2.40602 20.1212H37.594C38.9228 20.1212 40 21.2283 40 22.594C40 23.9597 38.9228 25.0668 37.594 25.0668H2.40602C1.07721 25.0668 0 23.9597 0 22.594Z" fill="#CAD8E3"/>
</svg>
