<svg width="56" height="56" viewBox="0 0 56 56" fill="none" xmlns="http://www.w3.org/2000/svg">
<g id="ion:home">
<path id="Vector" d="M28.6081 11.0775C28.4452 10.9217 28.2286 10.8348 28.0032 10.8348C27.7779 10.8348 27.5612 10.9217 27.3984 11.0775L7.26245 30.3133C7.17694 30.3951 7.1089 30.4934 7.06247 30.6022C7.01603 30.7111 6.99216 30.8282 6.99229 30.9466L6.98901 49C6.98901 49.9282 7.35776 50.8185 8.01414 51.4749C8.67052 52.1312 9.56076 52.5 10.489 52.5H21C21.4641 52.5 21.9092 52.3156 22.2374 51.9874C22.5656 51.6592 22.75 51.2141 22.75 50.75V35.875C22.75 35.6429 22.8421 35.4204 23.0062 35.2563C23.1703 35.0922 23.3929 35 23.625 35H32.375C32.607 35 32.8296 35.0922 32.9937 35.2563C33.1578 35.4204 33.25 35.6429 33.25 35.875V50.75C33.25 51.2141 33.4343 51.6592 33.7625 51.9874C34.0907 52.3156 34.5358 52.5 35 52.5H45.5065C46.4348 52.5 47.325 52.1312 47.9814 51.4749C48.6378 50.8185 49.0065 49.9282 49.0065 49V30.9466C49.0066 30.8282 48.9828 30.7111 48.9363 30.6022C48.8899 30.4934 48.8219 30.3951 48.7364 30.3133L28.6081 11.0775Z" fill="#1A5796"/>
<path id="Vector_2" d="M53.6933 26.7039L45.5121 18.877V7C45.5121 6.53587 45.3277 6.09075 44.9995 5.76256C44.6713 5.43437 44.2262 5.25 43.7621 5.25H38.5121C38.0479 5.25 37.6028 5.43437 37.2746 5.76256C36.9464 6.09075 36.7621 6.53587 36.7621 7V10.5L30.4271 4.44281C29.8343 3.84344 28.9527 3.5 28 3.5C27.0507 3.5 26.1713 3.84344 25.5785 4.44391L2.31442 26.7017C1.6341 27.358 1.54879 28.4375 2.16785 29.1484C2.32331 29.3279 2.51366 29.4738 2.72731 29.5774C2.94096 29.6809 3.17344 29.7399 3.41062 29.7508C3.64779 29.7616 3.88469 29.7241 4.1069 29.6405C4.32911 29.5568 4.53198 29.4289 4.70317 29.2644L27.3985 7.5775C27.5613 7.42173 27.778 7.33479 28.0033 7.33479C28.2287 7.33479 28.4453 7.42173 28.6082 7.5775L51.3057 29.2644C51.64 29.585 52.0878 29.76 52.551 29.751C53.0142 29.7419 53.4548 29.5497 53.7764 29.2162C54.448 28.5206 54.3922 27.3722 53.6933 26.7039Z" fill="#1A5796"/>
</g>
</svg>
