<svg width="38" height="38" viewBox="0 0 38 38" fill="none" xmlns="http://www.w3.org/2000/svg">
<path id="Vector" d="M20.9532 0C23.0906 0.00569987 24.1755 0.0170996 25.1121 0.043699L25.4807 0.0569986C25.9063 0.0721983 26.3261 0.0911978 26.8334 0.113997C28.8549 0.208995 30.2342 0.528188 31.4445 0.997477C32.6984 1.48007 33.7548 2.13365 34.8111 3.18813C35.7772 4.13791 36.5247 5.2868 37.0017 6.55485C37.471 7.76512 37.7902 9.14449 37.8852 11.1679C37.908 11.6733 37.927 12.0932 37.9422 12.5207L37.9536 12.8893C37.9821 13.8241 37.9935 14.909 37.9973 17.0464L37.9992 18.4638V20.9527C38.0038 22.3385 37.9893 23.7244 37.9555 25.1098L37.9441 25.4784C37.9289 25.9059 37.9099 26.3258 37.8871 26.8312C37.7921 28.8546 37.4691 30.2321 37.0017 31.4443C36.5261 32.713 35.7784 33.8622 34.8111 34.811C33.8611 35.7768 32.7123 36.5243 31.4445 37.0016C30.2342 37.4709 28.8549 37.7901 26.8334 37.8851C26.3826 37.9063 25.9317 37.9253 25.4807 37.9421L25.1121 37.9535C24.1755 37.9801 23.0906 37.9934 20.9532 37.9972L19.5359 37.9991H17.0489C15.6625 38.0039 14.2761 37.9893 12.89 37.9554L12.5215 37.944C12.0704 37.9269 11.6195 37.9073 11.1687 37.8851C9.14723 37.7901 7.7679 37.4709 6.55576 37.0016C5.2879 36.5255 4.1395 35.7778 3.19103 34.811C2.22407 33.8616 1.47585 32.7126 0.998545 31.4443C0.529269 30.234 0.210085 28.8546 0.11509 26.8312C0.0939231 26.3803 0.0749239 25.9294 0.0580933 25.4784L0.048594 25.1098C0.0135827 23.7244 -0.00225154 22.3386 0.00109625 20.9527V17.0464C-0.00420632 15.6606 0.00972779 14.2747 0.0428942 12.8893L0.0561935 12.5207C0.0713927 12.0932 0.0903917 11.6733 0.113191 11.1679C0.208186 9.14449 0.527369 7.76702 0.996645 6.55485C1.47374 5.28549 2.22345 4.13625 3.19293 3.18813C4.14116 2.22195 5.2888 1.47434 6.55576 0.997477C7.7679 0.528188 9.14533 0.208995 11.1687 0.113997C11.6741 0.0911978 12.0959 0.0721983 12.5215 0.0569986L12.89 0.0455988C14.2754 0.0118419 15.6612 -0.00272586 17.047 0.00189982L20.9532 0ZM19.0001 9.49978C16.4807 9.49978 14.0645 10.5006 12.283 12.2822C10.5014 14.0638 9.50061 16.4801 9.50061 18.9996C9.50061 21.5191 10.5014 23.9354 12.283 25.7169C14.0645 27.4985 16.4807 28.4993 19.0001 28.4993C21.5196 28.4993 23.9358 27.4985 25.7173 25.7169C27.4988 23.9354 28.4996 21.5191 28.4996 18.9996C28.4996 16.4801 27.4988 14.0638 25.7173 12.2822C23.9358 10.5006 21.5196 9.49978 19.0001 9.49978ZM19.0001 13.2997C19.7486 13.2996 20.4898 13.4469 21.1814 13.7332C21.8729 14.0195 22.5013 14.4393 23.0307 14.9685C23.5601 15.4977 23.98 16.1259 24.2666 16.8174C24.5531 17.5089 24.7007 18.2501 24.7008 18.9986C24.7009 19.7471 24.5536 20.4883 24.2673 21.1799C23.981 21.8715 23.5612 22.4999 23.032 23.0293C22.5029 23.5587 21.8746 23.9786 21.1831 24.2652C20.4917 24.5517 19.7505 24.6993 19.002 24.6994C17.4904 24.6994 16.0406 24.0989 14.9717 23.03C13.9028 21.961 13.3023 20.5113 13.3023 18.9996C13.3023 17.4879 13.9028 16.0381 14.9717 14.9691C16.0406 13.9002 17.4904 13.2997 19.002 13.2997M28.9765 6.64984C28.3467 6.64984 27.7426 6.90006 27.2972 7.34545C26.8518 7.79084 26.6016 8.39491 26.6016 9.02479C26.6016 9.65466 26.8518 10.2587 27.2972 10.7041C27.7426 11.1495 28.3467 11.3997 28.9765 11.3997C29.6064 11.3997 30.2104 11.1495 30.6558 10.7041C31.1012 10.2587 31.3514 9.65466 31.3514 9.02479C31.3514 8.39491 31.1012 7.79084 30.6558 7.34545C30.2104 6.90006 29.6064 6.64984 28.9765 6.64984Z" fill="#EBF3F5"/>
</svg>
