<svg width="29" height="28" viewBox="0 0 29 28" fill="none" xmlns="http://www.w3.org/2000/svg">
<path d="M16.0604 0C17.632 0.0041909 18.4296 0.0125727 19.1183 0.0321303L19.3893 0.041909C19.7022 0.0530847 20.0109 0.0670544 20.3839 0.083818C21.8703 0.153666 22.8844 0.388357 23.7743 0.733408C24.6962 1.08824 25.4729 1.56879 26.2496 2.34411C26.96 3.04245 27.5096 3.88719 27.8603 4.81954C28.2053 5.70941 28.44 6.7236 28.5099 8.21137C28.5266 8.58297 28.5406 8.8917 28.5518 9.20602L28.5601 9.47703C28.5811 10.1643 28.5895 10.962 28.5923 12.5336L28.5937 13.5757V15.4058C28.5971 16.4247 28.5864 17.4437 28.5615 18.4623L28.5532 18.7333C28.542 19.0477 28.528 19.3564 28.5113 19.728C28.4414 21.2157 28.2039 22.2285 27.8603 23.1198C27.5106 24.0527 26.9608 24.8976 26.2496 25.5952C25.5511 26.3053 24.7064 26.855 23.7743 27.2059C22.8844 27.551 21.8703 27.7857 20.3839 27.8555C20.0525 27.8711 19.7209 27.8851 19.3893 27.8974L19.1183 27.9058C18.4296 27.9254 17.632 27.9352 16.0604 27.938L15.0183 27.9393H13.1897C12.1703 27.9429 11.151 27.9322 10.1319 27.9072L9.86086 27.8988C9.52924 27.8863 9.1977 27.8718 8.86625 27.8555C7.37992 27.7857 6.36575 27.551 5.47451 27.2059C4.54229 26.8558 3.69792 26.3061 3.00055 25.5952C2.28957 24.8972 1.73943 24.0524 1.38849 23.1198C1.04345 22.2299 0.808765 21.2157 0.738919 19.728C0.723355 19.3965 0.709386 19.0649 0.697011 18.7333L0.690026 18.4623C0.664284 17.4437 0.652641 16.4247 0.655103 15.4058V12.5336C0.651204 11.5146 0.661449 10.4957 0.685835 9.47703L0.695614 9.20602C0.706789 8.8917 0.720759 8.58297 0.737522 8.21137C0.807368 6.7236 1.04205 5.7108 1.38709 4.81954C1.73788 3.88623 2.28912 3.04123 3.00194 2.34411C3.69914 1.63372 4.54296 1.08403 5.47451 0.733408C6.36575 0.388357 7.37852 0.153666 8.86625 0.083818C9.23783 0.0670544 9.54795 0.0530847 9.86086 0.041909L10.1319 0.0335271C11.1505 0.00870689 12.1694 -0.00200423 13.1883 0.00139687L16.0604 0ZM14.6244 6.98484C12.7719 6.98484 10.9954 7.72074 9.6855 9.03065C8.37562 10.3406 7.63974 12.1172 7.63974 13.9697C7.63974 15.8222 8.37562 17.5988 9.6855 18.9087C10.9954 20.2186 12.7719 20.9545 14.6244 20.9545C16.4768 20.9545 18.2534 20.2186 19.5633 18.9087C20.8731 17.5988 21.609 15.8222 21.609 13.9697C21.609 12.1172 20.8731 10.3406 19.5633 9.03065C18.2534 7.72074 16.4768 6.98484 14.6244 6.98484ZM14.6244 9.77877C15.1747 9.77868 15.7197 9.88699 16.2282 10.0975C16.7367 10.308 17.1987 10.6167 17.5879 11.0058C17.9771 11.3949 18.2859 11.8568 18.4966 12.3652C18.7073 12.8737 18.8158 13.4186 18.8159 13.969C18.816 14.5193 18.7077 15.0643 18.4971 15.5728C18.2866 16.0813 17.978 16.5434 17.5889 16.9326C17.1998 17.3218 16.7379 17.6306 16.2295 17.8413C15.7211 18.052 15.1761 18.1605 14.6258 18.1606C13.5143 18.1606 12.4484 17.719 11.6624 16.9331C10.8765 16.1471 10.435 15.0812 10.435 13.9697C10.435 12.8582 10.8765 11.7922 11.6624 11.0063C12.4484 10.2203 13.5143 9.77877 14.6258 9.77877M21.9597 4.88939C21.4965 4.88939 21.0524 5.07336 20.7249 5.40084C20.3975 5.72832 20.2135 6.17247 20.2135 6.63559C20.2135 7.09872 20.3975 7.54287 20.7249 7.87035C21.0524 8.19783 21.4965 8.3818 21.9597 8.3818C22.4228 8.3818 22.8669 8.19783 23.1944 7.87035C23.5218 7.54287 23.7058 7.09872 23.7058 6.63559C23.7058 6.17247 23.5218 5.72832 23.1944 5.40084C22.8669 5.07336 22.4228 4.88939 21.9597 4.88939Z" fill="#1A5796"/>
</svg>
