<svg width="39" height="39" viewBox="0 0 39 39" fill="none" xmlns="http://www.w3.org/2000/svg">
<g id="pepicons-pencil:internet-circle-filled" clip-path="url(#clip0_17_374)">
<g id="Group">
<g id="Mask group">
<mask id="mask0_17_374" style="mask-type:luminance" maskUnits="userSpaceOnUse" x="-3" y="-3" width="45" height="45">
<g id="Group_2">
<path id="Vector" d="M-2.27771 -2.27783H41.2777V41.2776H-2.27771V-2.27783Z" fill="white"/>
<g id="Group_3">
<path id="Vector_2" fill-rule="evenodd" clip-rule="evenodd" d="M5.26074 19.5C5.26074 23.2765 6.76095 26.8983 9.43133 29.5687C12.1017 32.2391 15.7235 33.7393 19.5 33.7393C23.2765 33.7393 26.8983 32.2391 29.5687 29.5687C32.2391 26.8983 33.7393 23.2765 33.7393 19.5C33.7393 15.7235 32.2391 12.1017 29.5687 9.43133C26.8983 6.76095 23.2765 5.26074 19.5 5.26074C15.7235 5.26074 12.1017 6.76095 9.43133 9.43133C6.76095 12.1017 5.26074 15.7235 5.26074 19.5ZM32.0641 19.5C32.0641 22.8322 30.7404 26.0279 28.3841 28.3841C26.0279 30.7404 22.8322 32.0641 19.5 32.0641C16.1678 32.0641 12.9721 30.7404 10.6159 28.3841C8.25966 26.0279 6.93595 22.8322 6.93595 19.5C6.93595 16.1678 8.25966 12.9721 10.6159 10.6159C12.9721 8.25966 16.1678 6.93595 19.5 6.93595C22.8322 6.93595 26.0279 8.25966 28.3841 10.6159C30.7404 12.9721 32.0641 16.1678 32.0641 19.5Z" fill="black"/>
<path id="Vector_3" fill-rule="evenodd" clip-rule="evenodd" d="M13.6368 19.4998C13.6368 26.8624 16.0524 32.9015 19.5 32.9015C22.9476 32.9015 25.3632 26.8624 25.3632 19.4998C25.3632 12.1356 22.9476 6.09814 19.5 6.09814C16.0524 6.09814 13.6368 12.1356 13.6368 19.4998ZM23.688 19.4998C23.688 26.0147 21.6024 31.2263 19.5 31.2263C17.3976 31.2263 15.312 26.0147 15.312 19.4998C15.312 12.9849 17.3976 7.77335 19.5 7.77335C21.6024 7.77335 23.688 12.9849 23.688 19.4998Z" fill="black"/>
<path id="Vector_4" d="M9.00481 11.6463L10.1272 10.4033C10.3065 10.5641 10.4974 10.7216 10.7018 10.8741C12.9097 12.5292 16.3942 13.5376 20.1919 13.5376C23.43 13.5376 26.4521 12.8056 28.66 11.5441C29.1687 11.2563 29.6494 10.9215 30.0957 10.544L31.1846 11.8172C30.6854 12.2444 30.1191 12.638 29.4926 12.9965C27.0183 14.4121 23.7098 15.2128 20.1919 15.2128C16.0541 15.2128 12.2145 14.1022 9.69668 12.2142C9.45743 12.0351 9.22657 11.845 9.00481 11.6446M9.00481 27.3732L10.1272 28.6128C10.3065 28.452 10.4974 28.2945 10.7018 28.1438C12.9097 26.4887 16.3942 25.4802 20.1919 25.4802C23.43 25.4802 26.4521 26.2106 28.66 27.4737C29.1978 27.7819 29.6786 28.117 30.0957 28.4721L31.1846 27.199C30.6587 26.7539 30.0922 26.359 29.4926 26.0196C27.0183 24.6057 23.7098 23.805 20.1919 23.805C16.0541 23.805 12.2145 24.9157 9.69668 26.8019C9.45209 26.9862 9.22092 27.1755 9.00481 27.3715M6.09833 20.3373V18.6621H32.9017V20.3373H6.09833Z" fill="black"/>
</g>
</g>
</mask>
<g mask="url(#mask0_17_374)">
<path id="Vector_5" d="M19.5 39C30.2696 39 39 30.2696 39 19.5C39 8.73045 30.2696 0 19.5 0C8.73045 0 0 8.73045 0 19.5C0 30.2696 8.73045 39 19.5 39Z" fill="#EBF3F5"/>
</g>
</g>
</g>
</g>
<defs>
<clipPath id="clip0_17_374">
<rect width="39" height="39" fill="white"/>
</clipPath>
</defs>
</svg>
