<svg width="38" height="34" viewBox="0 0 38 34" fill="none" xmlns="http://www.w3.org/2000/svg">
<path d="M18.9831 10.7339L24.3749 16.2252V15.9471C24.3749 14.5645 23.8373 13.2385 22.8803 12.2608C21.9234 11.2831 20.6255 10.7339 19.2722 10.7339H18.9831ZM11.6693 12.1241L14.3056 14.8176C14.2206 15.1825 14.1696 15.5475 14.1696 15.9471C14.1696 17.3298 14.7072 18.6558 15.6641 19.6334C16.621 20.6111 17.9189 21.1604 19.2722 21.1604C19.6464 21.1604 20.0206 21.1082 20.3778 21.0213L23.0142 23.7149C21.8746 24.2883 20.6159 24.6359 19.2722 24.6359C17.0167 24.6359 14.8536 23.7204 13.2587 22.091C11.6638 20.4615 10.7678 18.2515 10.7678 15.9471C10.7678 14.5743 11.108 13.2884 11.6693 12.1241ZM2.26338 2.51437L6.1414 6.47643L6.90679 7.25841C4.10034 9.51748 1.88919 12.4716 0.5625 15.9471C3.50503 23.5758 10.7678 28.9802 19.2722 28.9802C21.9086 28.9802 24.4259 28.4589 26.7221 27.5205L27.4535 28.2504L32.42 33.3246L34.5802 31.1176L4.4235 0.307434M19.2722 7.25841C21.5277 7.25841 23.6909 8.17383 25.2857 9.80328C26.8806 11.4327 27.7766 13.6427 27.7766 15.9471C27.7766 17.0593 27.5555 18.1367 27.1643 19.1098L32.1479 24.2014C34.6992 22.0292 36.7403 19.1793 37.9819 15.9471C35.0394 8.31844 27.7766 2.91405 19.2722 2.91405C16.891 2.91405 14.6118 3.34849 12.4687 4.13047L16.1596 7.86662C17.1291 7.48432 18.1666 7.25841 19.2722 7.25841Z" fill="#A4B3BC"/>
</svg>
