<svg width="44" height="41" viewBox="0 0 44 41" fill="none" xmlns="http://www.w3.org/2000/svg">
<path d="M36 0L26 10V32L36 23V0ZM0 10V39.3C0 39.8 0.5 40.3 1 40.3C1.2 40.3 1.3 40.2 1.5 40.2C4.2 38.9 8.1 38 11 38C14.9 38 19.1 38.8 22 41V10C19.1 7.8 14.9 7 11 7C7.1 7 2.9 7.8 0 10ZM44 37V10C42.8 9.1 41.5 8.5 40 8V35C37.8 34.3 35.4 34 33 34C29.6 34 24.7 35.3 22 37V41C24.7 39.3 29.6 38 33 38C36.3 38 39.7 38.6 42.5 40.1C42.7 40.2 42.8 40.2 43 40.2C43.5 40.2 44 39.7 44 39.2V37Z" fill="#5A5C6B"/>
</svg>
