<svg width="287" height="222" viewBox="0 0 287 222" fill="none" xmlns="http://www.w3.org/2000/svg">
<path d="M142.501 108.824C133.97 108.824 125.788 112.213 119.755 118.246C113.723 124.278 110.334 132.46 110.334 140.991C110.334 149.522 113.723 157.704 119.755 163.736C125.788 169.769 133.97 173.158 142.501 173.158C151.032 173.158 159.213 169.769 165.246 163.736C171.278 157.704 174.667 149.522 174.667 140.991C174.667 132.46 171.278 124.278 165.246 118.246C159.213 112.213 151.032 108.824 142.501 108.824ZM128.715 140.991C128.715 137.335 130.167 133.828 132.753 131.243C135.338 128.658 138.844 127.205 142.501 127.205C146.157 127.205 149.663 128.658 152.249 131.243C154.834 133.828 156.286 137.335 156.286 140.991C156.286 144.647 154.834 148.154 152.249 150.739C149.663 153.324 146.157 154.777 142.501 154.777C138.844 154.777 135.338 153.324 132.753 150.739C130.167 148.154 128.715 144.647 128.715 140.991Z" fill="#62D4EE"/>
<path d="M193.287 40.962L164.07 0L56.6426 85.8207L50.6871 85.7563V85.8482H46V196.134H239V85.8482H230.159L212.568 34.3908L193.287 40.962ZM210.739 85.8482H118.577L187.221 62.4493L201.209 57.9735L210.739 85.8482ZM175.126 47.1563L104.268 71.3089L160.385 26.4778L175.126 47.1563ZM64.381 160.925V121.039C68.2584 119.665 71.7803 117.443 74.6899 114.535C77.5995 111.627 79.8234 108.106 81.1995 104.229H203.8C205.176 108.107 207.4 111.629 210.309 114.539C213.219 117.449 216.741 119.672 220.619 121.048V160.934C216.741 162.31 213.219 164.534 210.309 167.443C207.4 170.353 205.176 173.875 203.8 177.753H81.2179C79.841 173.872 77.6149 170.347 74.702 167.435C71.7892 164.524 68.263 162.3 64.381 160.925Z" fill="#62D4EE"/>
<path opacity="0.18" d="M48.8238 46.4823C39.7728 48.4011 30.3648 50.4835 23.0987 56.2138C16.963 61.048 7.40254 69.9726 4.50577 77.2238C-7.76555 107.854 6.10847 145.125 33.0384 164.187C45.7039 173.152 61.4893 177.492 72.8719 188.045C80.071 194.72 85.1134 203.555 92.7737 209.691C103.967 218.649 119.079 220.631 133.381 221.59C143.317 222.263 153.639 222.553 162.858 218.775C169.521 216.046 175.166 211.364 180.707 206.749L217.413 176.097C223.311 171.177 228.825 163.342 236.504 163.394C305.618 163.889 310.277 82.5525 204.205 46.5269C194.856 43.3513 188.445 34.5234 179.662 29.9978C161.519 20.6456 140.639 23.6763 122.34 30.1466C99.1064 38.3832 72.9351 41.3544 48.8238 46.4823Z" fill="#68E1FD"/>
<path d="M78.0767 33.8464C75.0274 27.3054 63.5742 28.38 63.5742 28.38C70.6395 24.2115 69.286 13.6247 69.2004 13C72.2906 22.2295 82.9592 20.1917 83.9149 19.9909C76.831 21.7387 78.0767 33.8464 78.0767 33.8464Z" fill="#68E1FD"/>
<path d="M58.2221 47.2667C56.2847 43.1093 49 43.7935 49 43.7935C53.611 41.0529 52.5661 33.9988 52.5661 33.9988V34.0397C54.5444 39.8741 61.3122 38.5801 61.9146 38.4536C57.43 39.5692 58.2221 47.2667 58.2221 47.2667Z" fill="#68E1FD"/>
<path opacity="0.22" d="M65.2164 27.8446L63.584 28.38C70.6493 24.2115 69.2957 13.6247 69.2102 13C69.3218 13.502 70.9654 20.4892 70.0692 22.7836C68.9499 25.6506 65.2164 27.8446 65.2164 27.8446Z" fill="white"/>
<path opacity="0.22" d="M53.5392 40.6291C52.6765 41.8228 49.2479 43.6635 49.0137 43.7862C53.6247 41.0456 52.5798 33.9915 52.5798 33.9915V34.0324C52.762 34.5158 54.3796 39.4615 53.5392 40.6291Z" fill="white"/>
</svg>
