<svg width="38" height="48" viewBox="0 0 38 48" fill="none" xmlns="http://www.w3.org/2000/svg">
<g id="Group 176">
<path id="Vector" d="M20.3958 43.7501L0 23.3542V27.5209C0 28.6251 0.4375 29.6876 1.22917 30.4584L17.4583 46.6876C19.0833 48.3126 21.7292 48.3126 23.3542 46.6876L36.2917 33.7501C37.9167 32.1251 37.9167 29.4792 36.2917 27.8542L20.3958 43.7501Z" fill="#5A5C6B"/>
<path id="Vector_2" d="M17.4583 36.2708C19.0833 37.8958 21.7292 37.8958 23.3542 36.2708L36.2917 23.3333C37.9167 21.7083 37.9167 19.0625 36.2917 17.4375L20.0625 1.20833C19.2711 0.436045 18.2099 0.00259443 17.1042 0L4.16667 0C1.875 0 0 1.875 0 4.16667V17.1042C0 18.2083 0.4375 19.2708 1.22917 20.0417L17.4583 36.2708ZM8.85417 6.25C9.54483 6.25 10.2072 6.52437 10.6956 7.01274C11.184 7.50112 11.4583 8.1635 11.4583 8.85417C11.4583 9.54484 11.184 10.2072 10.6956 10.6956C10.2072 11.184 9.54483 11.4583 8.85417 11.4583C8.1635 11.4583 7.50112 11.184 7.01274 10.6956C6.52437 10.2072 6.25 9.54484 6.25 8.85417C6.25 8.1635 6.52437 7.50112 7.01274 7.01274C7.50112 6.52437 8.1635 6.25 8.85417 6.25Z" fill="#5A5C6B"/>
</g>
</svg>
