<svg width="25" height="25" viewBox="0 0 31 30" fill="none" xmlns="http://www.w3.org/2000/svg">
<g id="Group 156">
<path id="Vector" fill-rule="evenodd" clip-rule="evenodd" d="M9.4045 14.9298C9.4045 14.6334 9.52223 14.3492 9.73177 14.1397C9.94132 13.9301 10.2255 13.8124 10.5219 13.8124H26.8697L23.9482 11.3095C23.8367 11.214 23.745 11.0975 23.6786 10.9666C23.6121 10.8357 23.572 10.693 23.5607 10.5467C23.5493 10.4003 23.5669 10.2531 23.6124 10.1136C23.658 9.974 23.7305 9.84477 23.826 9.73325C23.9215 9.62173 24.038 9.53011 24.1689 9.46362C24.2998 9.39713 24.4425 9.35706 24.5888 9.34572C24.7352 9.33438 24.8824 9.35197 25.0219 9.3975C25.1615 9.44304 25.2907 9.51561 25.4023 9.61109L30.6166 14.0806C30.7393 14.1855 30.8378 14.3157 30.9053 14.4623C30.9728 14.6089 31.0078 14.7684 31.0078 14.9298C31.0078 15.0912 30.9728 15.2506 30.9053 15.3972C30.8378 15.5438 30.7393 15.6741 30.6166 15.779L25.4023 20.2484C25.177 20.4413 24.8844 20.5367 24.5888 20.5138C24.2932 20.4909 24.0188 20.3515 23.826 20.1263C23.6332 19.9011 23.5377 19.6085 23.5607 19.3129C23.5836 19.0173 23.723 18.7429 23.9482 18.55L26.8682 16.0471H10.5219C10.2255 16.0471 9.94132 15.9294 9.73177 15.7199C9.52223 15.5103 9.4045 15.2261 9.4045 14.9298Z" fill="#EBF3F5"/>
<path id="Vector_2" d="M19.4629 8.97045C19.4629 10.0163 19.4629 10.5392 19.2111 10.9162C19.1027 11.0782 18.9635 11.2174 18.8014 11.3259C18.4245 11.5776 17.9016 11.5776 16.8557 11.5776H10.5239C9.6349 11.5776 8.78228 11.9308 8.15364 12.5595C7.52499 13.1881 7.17183 14.0407 7.17183 14.9298C7.17183 15.8188 7.52499 16.6714 8.15364 17.3001C8.78228 17.9287 9.6349 18.2819 10.5239 18.2819H16.8557C17.9016 18.2819 18.4245 18.2819 18.8014 18.5322C18.9636 18.641 19.1028 18.7807 19.2111 18.9433C19.4629 19.3203 19.4629 19.8432 19.4629 20.8891C19.4629 25.1023 19.4629 27.2104 18.1533 28.5185C16.8453 29.828 14.7387 29.828 10.5254 29.828H9.0356C4.81939 29.828 2.71427 29.828 1.40471 28.5185C0.0951519 27.2104 0.0951519 25.1023 0.0951519 20.8891V8.97045C0.0951519 4.75722 0.0951519 2.64912 1.40471 1.34105C2.71427 0.0314941 4.82088 0.0314941 9.03411 0.0314941H10.5239C14.7387 0.0314941 16.8453 0.0314941 18.1533 1.34105C19.4629 2.64912 19.4629 4.75722 19.4629 8.97045Z" fill="#EBF3F5"/>
</g>
</svg>
