<svg width="44" height="44" viewBox="0 0 44 44" fill="none" xmlns="http://www.w3.org/2000/svg">
<path fill-rule="evenodd" clip-rule="evenodd" d="M7.33333 0C5.38841 0 3.52315 0.772617 2.14788 2.14788C0.772617 3.52315 0 5.38841 0 7.33333V36.6667C0 38.6116 0.772617 40.4768 2.14788 41.8521C3.52315 43.2274 5.38841 44 7.33333 44H36.6667C38.6116 44 40.4768 43.2274 41.8521 41.8521C43.2274 40.4768 44 38.6116 44 36.6667V7.33333C44 5.38841 43.2274 3.52315 41.8521 2.14788C40.4768 0.772617 38.6116 0 36.6667 0H7.33333ZM17.1111 12.2222C17.1111 11.5739 17.3687 10.9522 17.8271 10.4937C18.2855 10.0353 18.9072 9.77778 19.5556 9.77778H34.2222C34.8705 9.77778 35.4923 10.0353 35.9507 10.4937C36.4091 10.9522 36.6667 11.5739 36.6667 12.2222C36.6667 12.8705 36.4091 13.4923 35.9507 13.9507C35.4923 14.4091 34.8705 14.6667 34.2222 14.6667H19.5556C18.9072 14.6667 18.2855 14.4091 17.8271 13.9507C17.3687 13.4923 17.1111 12.8705 17.1111 12.2222ZM17.1111 22C17.1111 21.3517 17.3687 20.7299 17.8271 20.2715C18.2855 19.8131 18.9072 19.5556 19.5556 19.5556H34.2222C34.8705 19.5556 35.4923 19.8131 35.9507 20.2715C36.4091 20.7299 36.6667 21.3517 36.6667 22C36.6667 22.6483 36.4091 23.2701 35.9507 23.7285C35.4923 24.1869 34.8705 24.4444 34.2222 24.4444H19.5556C18.9072 24.4444 18.2855 24.1869 17.8271 23.7285C17.3687 23.2701 17.1111 22.6483 17.1111 22ZM17.1111 31.7778C17.1111 31.1295 17.3687 30.5077 17.8271 30.0493C18.2855 29.5909 18.9072 29.3333 19.5556 29.3333H34.2222C34.8705 29.3333 35.4923 29.5909 35.9507 30.0493C36.4091 30.5077 36.6667 31.1295 36.6667 31.7778C36.6667 32.4261 36.4091 33.0478 35.9507 33.5063C35.4923 33.9647 34.8705 34.2222 34.2222 34.2222H19.5556C18.9072 34.2222 18.2855 33.9647 17.8271 33.5063C17.3687 33.0478 17.1111 32.4261 17.1111 31.7778ZM9.77778 9.77778C9.12947 9.77778 8.50772 10.0353 8.04929 10.4937C7.59087 10.9522 7.33333 11.5739 7.33333 12.2222C7.33333 12.8705 7.59087 13.4923 8.04929 13.9507C8.50772 14.4091 9.12947 14.6667 9.77778 14.6667C10.4261 14.6667 11.0503 14.4091 11.5087 13.9507C11.9671 13.4923 12.2247 12.8705 12.2247 12.2222C12.2247 11.5739 11.9671 10.9522 11.5087 10.4937C11.0503 10.0353 10.4261 9.77778 9.77778 9.77778ZM7.33333 22C7.33333 21.3517 7.59087 20.7299 8.04929 20.2715C8.50772 19.8131 9.12947 19.5556 9.77778 19.5556C10.4261 19.5556 11.0503 19.8131 11.5087 20.2715C11.9671 20.7299 12.2247 21.3517 12.2247 22C12.2247 22.6483 11.9671 23.2701 11.5087 23.7285C11.0503 24.1869 10.4285 24.4444 9.78022 24.4444C9.13192 24.4444 8.50772 24.1869 8.04929 23.7285C7.59087 23.2701 7.33333 22.6483 7.33333 22ZM9.77778 29.3333C9.12947 29.3333 8.50772 29.5909 8.04929 30.0493C7.59087 30.5077 7.33333 31.1295 7.33333 31.7778C7.33333 32.4261 7.59087 33.0478 8.04929 33.5063C8.50772 33.9647 9.12947 34.2222 9.77778 34.2222C10.4261 34.2222 11.0503 33.9647 11.5087 33.5063C11.9671 33.0478 12.2247 32.4261 12.2247 31.7778C12.2247 31.1295 11.9671 30.5077 11.5087 30.0493C11.0503 29.5909 10.4261 29.3333 9.77778 29.3333Z" fill="#5A5C6B"/>
</svg>
