<svg width="19" height="12" viewBox="0 0 19 12" fill="none" xmlns="http://www.w3.org/2000/svg">
<path id="Vector" d="M19 5.99407C19 5.5549 18.8559 5.18694 18.5556 4.90208L13.9437 0.451042C13.6795 0.154306 13.3312 1.41177e-06 12.9229 1.37607e-06C12.5025 1.33932e-06 12.1422 0.142435 11.854 0.415432C11.5657 0.688429 11.4096 1.04451 11.4096 1.45994C11.4096 1.87537 11.5537 2.23146 11.854 2.51632L13.8236 4.46291L1.45322 4.46291C1.03287 4.46291 0.684573 4.60534 0.408341 4.90208C0.132107 5.19881 -1.3439e-06 5.5549 -1.38022e-06 5.97033C-1.41654e-06 6.38576 0.132107 6.74184 0.408341 7.03857C0.684573 7.33531 1.03287 7.48961 1.45322 7.50148L13.8236 7.50148L11.854 9.47181C11.5657 9.75668 11.4096 10.1009 11.4096 10.4926C11.4096 10.908 11.5537 11.2641 11.854 11.549C12.1542 11.8338 12.5025 12 12.9349 12C13.3192 12 13.6675 11.8338 13.9558 11.5134L18.5676 7.06231C18.8559 6.76558 19 6.42137 19 5.99407Z" fill="#EBF3F5"/>
</svg>
