<svg width="37" height="37" viewBox="0 0 37 37" fill="none" xmlns="http://www.w3.org/2000/svg">
<g id="wi:direction-left">
<path id="Vector" d="M28.2557 18.4506C28.2557 18.907 28.1077 19.2893 27.7993 19.5853L23.0633 24.2103C22.792 24.5186 22.4343 24.679 22.015 24.679C21.5833 24.679 21.2133 24.531 20.9173 24.2473C20.6213 23.9636 20.461 23.5936 20.461 23.162C20.461 22.7303 20.609 22.3603 20.9173 22.0643L22.94 20.0416H10.2367C9.80499 20.0416 9.44733 19.8936 9.16366 19.5853C8.88 19.277 8.74433 18.907 8.74433 18.4753C8.74433 18.0436 8.88 17.6736 9.16366 17.3653C9.44733 17.057 9.80499 16.8966 10.2367 16.8843H22.94L20.9173 14.837C20.6213 14.541 20.461 14.1833 20.461 13.7763C20.461 13.3446 20.609 12.9746 20.9173 12.6786C21.2257 12.3826 21.5833 12.21 22.0273 12.21C22.422 12.21 22.7797 12.3826 23.0757 12.7156L27.8117 17.3406C28.1077 17.649 28.2557 18.0066 28.2557 18.4506Z" fill="#267DC2"/>
</g>
</svg>
