<svg width="28" height="37" viewBox="0 0 28 37" fill="none" xmlns="http://www.w3.org/2000/svg">
<path id="Vector" d="M14 28C14.9283 28 15.8185 27.6313 16.4749 26.9749C17.1313 26.3185 17.5 25.4283 17.5 24.5C17.5 23.5717 17.1313 22.6815 16.4749 22.0251C15.8185 21.3687 14.9283 21 14 21C13.0717 21 12.1815 21.3687 11.5251 22.0251C10.8687 22.6815 10.5 23.5717 10.5 24.5C10.5 25.4283 10.8687 26.3185 11.5251 26.9749C12.1815 27.6313 13.0717 28 14 28ZM24.5 12.25C25.4283 12.25 26.3185 12.6187 26.9749 13.2751C27.6313 13.9315 28 14.8217 28 15.75V33.25C28 34.1783 27.6313 35.0685 26.9749 35.7249C26.3185 36.3812 25.4283 36.75 24.5 36.75H3.5C2.57174 36.75 1.6815 36.3812 1.02513 35.7249C0.368749 35.0685 0 34.1783 0 33.25V15.75C0 14.8217 0.368749 13.9315 1.02513 13.2751C1.6815 12.6187 2.57174 12.25 3.5 12.25H5.25V8.75C5.25 6.42936 6.17187 4.20376 7.81282 2.56282C9.45376 0.921872 11.6794 0 14 0C15.1491 0 16.2869 0.226325 17.3485 0.666054C18.4101 1.10578 19.3747 1.7503 20.1872 2.56282C20.9997 3.37533 21.6442 4.33992 22.0839 5.40152C22.5237 6.46312 22.75 7.60093 22.75 8.75V12.25H24.5ZM14 3.5C12.6076 3.5 11.2723 4.05312 10.2877 5.03769C9.30312 6.02226 8.75 7.35761 8.75 8.75V12.25H19.25V8.75C19.25 7.35761 18.6969 6.02226 17.7123 5.03769C16.7277 4.05312 15.3924 3.5 14 3.5Z" fill="#1A5796"/>
</svg>
