<svg width="44" height="45" viewBox="0 0 44 45" fill="none" xmlns="http://www.w3.org/2000/svg">
<path d="M12.6028 1.64375C12.6028 1.2078 12.4296 0.789706 12.1213 0.481443C11.8131 0.17318 11.395 0 10.959 0C10.5231 0 10.105 0.17318 9.79671 0.481443C9.48845 0.789706 9.31527 1.2078 9.31527 1.64375V5.10658C6.15927 5.35862 4.09034 5.97667 2.56932 7.49988C1.04611 9.0209 0.428061 11.092 0.173828 14.2458H43.6609C43.4066 11.0898 42.7886 9.0209 41.2654 7.49988C39.7444 5.97667 37.6732 5.35862 34.5194 5.10439V1.64375C34.5194 1.2078 34.3463 0.789706 34.038 0.481443C33.7297 0.17318 33.3116 0 32.8757 0C32.4397 0 32.0216 0.17318 31.7134 0.481443C31.4051 0.789706 31.2319 1.2078 31.2319 1.64375V4.95974C29.7745 4.93125 28.1395 4.93125 26.3007 4.93125H17.534C15.6952 4.93125 14.0602 4.93125 12.6028 4.95974V1.64375Z" fill="#5A5C6B"/>
<path fill-rule="evenodd" clip-rule="evenodd" d="M0 22.4645C0 20.6256 2.44938e-08 18.9907 0.0284917 17.5332H43.8048C43.8333 18.9907 43.8333 20.6256 43.8333 22.4645V26.8478C43.8333 35.1126 43.8333 39.246 41.2647 41.8125C38.6983 44.3811 34.5648 44.3811 26.3 44.3811H17.5333C9.26856 44.3811 5.13507 44.3811 2.56863 41.8125C-2.61267e-07 39.246 0 35.1126 0 26.8478V22.4645ZM32.875 26.8478C33.4563 26.8478 34.0137 26.6169 34.4247 26.2059C34.8358 25.7948 35.0667 25.2374 35.0667 24.6561C35.0667 24.0749 34.8358 23.5174 34.4247 23.1064C34.0137 22.6954 33.4563 22.4645 32.875 22.4645C32.2937 22.4645 31.7363 22.6954 31.3253 23.1064C30.9142 23.5174 30.6833 24.0749 30.6833 24.6561C30.6833 25.2374 30.9142 25.7948 31.3253 26.2059C31.7363 26.6169 32.2937 26.8478 32.875 26.8478ZM32.875 35.6145C33.4563 35.6145 34.0137 35.3835 34.4247 34.9725C34.8358 34.5615 35.0667 34.0041 35.0667 33.4228C35.0667 32.8415 34.8358 32.2841 34.4247 31.873C34.0137 31.462 33.4563 31.2311 32.875 31.2311C32.2937 31.2311 31.7363 31.462 31.3253 31.873C30.9142 32.2841 30.6833 32.8415 30.6833 33.4228C30.6833 34.0041 30.9142 34.5615 31.3253 34.9725C31.7363 35.3835 32.2937 35.6145 32.875 35.6145ZM24.1083 24.6561C24.1083 25.2374 23.8774 25.7948 23.4664 26.2059C23.0554 26.6169 22.4979 26.8478 21.9167 26.8478C21.3354 26.8478 20.7779 26.6169 20.3669 26.2059C19.9559 25.7948 19.725 25.2374 19.725 24.6561C19.725 24.0749 19.9559 23.5174 20.3669 23.1064C20.7779 22.6954 21.3354 22.4645 21.9167 22.4645C22.4979 22.4645 23.0554 22.6954 23.4664 23.1064C23.8774 23.5174 24.1083 24.0749 24.1083 24.6561ZM24.1083 33.4228C24.1083 34.0041 23.8774 34.5615 23.4664 34.9725C23.0554 35.3835 22.4979 35.6145 21.9167 35.6145C21.3354 35.6145 20.7779 35.3835 20.3669 34.9725C19.9559 34.5615 19.725 34.0041 19.725 33.4228C19.725 32.8415 19.9559 32.2841 20.3669 31.873C20.7779 31.462 21.3354 31.2311 21.9167 31.2311C22.4979 31.2311 23.0554 31.462 23.4664 31.873C23.8774 32.2841 24.1083 32.8415 24.1083 33.4228ZM10.9583 26.8478C11.5396 26.8478 12.0971 26.6169 12.5081 26.2059C12.9191 25.7948 13.15 25.2374 13.15 24.6561C13.15 24.0749 12.9191 23.5174 12.5081 23.1064C12.0971 22.6954 11.5396 22.4645 10.9583 22.4645C10.3771 22.4645 9.81961 22.6954 9.40859 23.1064C8.99757 23.5174 8.76667 24.0749 8.76667 24.6561C8.76667 25.2374 8.99757 25.7948 9.40859 26.2059C9.81961 26.6169 10.3771 26.8478 10.9583 26.8478ZM10.9583 35.6145C11.5396 35.6145 12.0971 35.3835 12.5081 34.9725C12.9191 34.5615 13.15 34.0041 13.15 33.4228C13.15 32.8415 12.9191 32.2841 12.5081 31.873C12.0971 31.462 11.5396 31.2311 10.9583 31.2311C10.3771 31.2311 9.81961 31.462 9.40859 31.873C8.99757 32.2841 8.76667 32.8415 8.76667 33.4228C8.76667 34.0041 8.99757 34.5615 9.40859 34.9725C9.81961 35.3835 10.3771 35.6145 10.9583 35.6145Z" fill="#5A5C6B"/>
</svg>
