<svg width="52" height="33" viewBox="0 0 52 33" fill="none" xmlns="http://www.w3.org/2000/svg">
<path d="M35.4545 14.1429C39.3782 14.1429 42.5218 10.9843 42.5218 7.07143C42.5218 3.15857 39.3782 0 35.4545 0C31.5309 0 28.3636 3.15857 28.3636 7.07143C28.3636 10.9843 31.5309 14.1429 35.4545 14.1429ZM16.5455 14.1429C20.4691 14.1429 23.6127 10.9843 23.6127 7.07143C23.6127 3.15857 20.4691 0 16.5455 0C12.6218 0 9.45455 3.15857 9.45455 7.07143C9.45455 10.9843 12.6218 14.1429 16.5455 14.1429ZM16.5455 18.8571C11.0382 18.8571 0 21.615 0 27.1071V30.6429C0 31.9393 1.06364 33 2.36364 33H30.7273C32.0273 33 33.0909 31.9393 33.0909 30.6429V27.1071C33.0909 21.615 22.0527 18.8571 16.5455 18.8571ZM35.4545 18.8571C34.7691 18.8571 33.9891 18.9043 33.1618 18.975C33.2091 18.9986 33.2327 19.0457 33.2564 19.0693C35.9509 21.0257 37.8182 23.6421 37.8182 27.1071V30.6429C37.8182 31.4679 37.6527 32.2693 37.3927 33H49.6364C50.9364 33 52 31.9393 52 30.6429V27.1071C52 21.615 40.9618 18.8571 35.4545 18.8571Z" fill="#5A5C6B"/>
</svg>
