<svg width="17" height="19" viewBox="0 0 17 19" fill="none" xmlns="http://www.w3.org/2000/svg">
<path id="Vector" d="M8.09143 7.68641C8.52602 7.68641 8.95635 7.60746 9.35786 7.45408C9.75936 7.30069 10.1242 7.07587 10.4315 6.79244C10.7388 6.50902 10.9825 6.17255 11.1489 5.80224C11.3152 5.43193 11.4008 5.03504 11.4008 4.63422C11.4008 4.2334 11.3152 3.83651 11.1489 3.4662C10.9825 3.09589 10.7388 2.75942 10.4315 2.476C10.1242 2.19258 9.75936 1.96775 9.35786 1.81437C8.95635 1.66098 8.52602 1.58203 8.09143 1.58203C7.21374 1.58203 6.372 1.9036 5.75138 2.476C5.13076 3.04839 4.7821 3.82473 4.7821 4.63422C4.7821 5.44371 5.13076 6.22005 5.75138 6.79244C6.372 7.36484 7.21374 7.68641 8.09143 7.68641ZM1 16.7558V17.279H15.1829V16.7558C15.1829 14.8024 15.1829 13.8257 14.7706 13.0792C14.408 12.4229 13.8295 11.8893 13.1178 11.5548C12.3085 11.1746 11.2495 11.1746 9.13151 11.1746H7.05135C4.93338 11.1746 3.87439 11.1746 3.06502 11.5548C2.35341 11.8893 1.77485 12.4229 1.41225 13.0792C1 13.8257 1 14.8024 1 16.7558Z" stroke="#15649D" stroke-width="2" stroke-linecap="round" stroke-linejoin="round"/>
</svg>
