<svg width="25" height="25" viewBox="0 0 33 25" fill="none" xmlns="http://www.w3.org/2000/svg">
<path fill-rule="evenodd" clip-rule="evenodd" d="M3.3 0C2.42479 0 1.58542 0.32924 0.966547 0.915291C0.347677 1.50134 0 2.2962 0 3.125V21.875C0 22.7038 0.347677 23.4987 0.966547 24.0847C1.58542 24.6708 2.42479 25 3.3 25H29.7C30.5752 25 31.4146 24.6708 32.0335 24.0847C32.6523 23.4987 33 22.7038 33 21.875V3.125C33 2.2962 32.6523 1.50134 32.0335 0.915291C31.4146 0.32924 30.5752 0 29.7 0H3.3ZM19.8 7.8125C19.8 7.3981 19.9738 7.00067 20.2833 6.70765C20.5927 6.41462 21.0124 6.25 21.45 6.25H26.4C26.8376 6.25 27.2573 6.41462 27.5667 6.70765C27.8762 7.00067 28.05 7.3981 28.05 7.8125C28.05 8.2269 27.8762 8.62433 27.5667 8.91735C27.2573 9.21038 26.8376 9.375 26.4 9.375H21.45C21.0124 9.375 20.5927 9.21038 20.2833 8.91735C19.9738 8.62433 19.8 8.2269 19.8 7.8125ZM19.8 12.5C19.8 12.0856 19.9738 11.6882 20.2833 11.3951C20.5927 11.1021 21.0124 10.9375 21.45 10.9375H26.4C26.8376 10.9375 27.2573 11.1021 27.5667 11.3951C27.8762 11.6882 28.05 12.0856 28.05 12.5C28.05 12.9144 27.8762 13.3118 27.5667 13.6049C27.2573 13.8979 26.8376 14.0625 26.4 14.0625H21.45C21.0124 14.0625 20.5927 13.8979 20.2833 13.6049C19.9738 13.3118 19.8 12.9144 19.8 12.5ZM19.8 17.1875C19.8 16.7731 19.9738 16.3757 20.2833 16.0826C20.5927 15.7896 21.0124 15.625 21.45 15.625H26.4C26.8376 15.625 27.2573 15.7896 27.5667 16.0826C27.8762 16.3757 28.05 16.7731 28.05 17.1875C28.05 17.6019 27.8762 17.9993 27.5667 18.2924C27.2573 18.5854 26.8376 18.75 26.4 18.75H21.45C21.0124 18.75 20.5927 18.5854 20.2833 18.2924C19.9738 17.9993 19.8 17.6019 19.8 17.1875ZM6.6 9.375C6.6 8.1318 7.12152 6.93951 8.04982 6.06044C8.97813 5.18136 10.2372 4.6875 11.55 4.6875C12.8628 4.6875 14.1219 5.18136 15.0502 6.06044C15.9785 6.93951 16.5 8.1318 16.5 9.375C16.5 10.6182 15.9785 11.8105 15.0502 12.6896C14.1219 13.5686 12.8628 14.0625 11.55 14.0625C10.2372 14.0625 8.97813 13.5686 8.04982 12.6896C7.12152 11.8105 6.6 10.6182 6.6 9.375ZM9.8043 15.625C8.76518 15.6247 7.75229 15.934 6.90917 16.5092C6.06605 17.0843 5.43546 17.8962 5.10675 18.8297L5.03415 19.0375L5.02755 19.0562C4.95825 19.2531 4.9368 19.3172 4.95825 19.3609C4.96815 19.3813 4.99125 19.3969 5.02095 19.4219C5.07375 19.4609 5.15295 19.5219 5.26185 19.6641C5.41473 19.8648 5.61577 20.0282 5.84842 20.141C6.08107 20.2537 6.33866 20.3125 6.6 20.3125H16.5C16.7613 20.3125 17.0189 20.2537 17.2516 20.141C17.4842 20.0282 17.6853 19.8648 17.8382 19.6641C17.9049 19.5722 17.9862 19.4905 18.0791 19.4219C18.1104 19.3969 18.1302 19.3812 18.1418 19.3594C18.1649 19.3172 18.1418 19.2531 18.0725 19.0562L18.0659 19.0375L17.9932 18.8297C17.6646 17.8965 17.0343 17.0848 16.1915 16.5096C15.3487 15.9345 14.3362 15.625 13.2973 15.625H9.8043Z" fill="#EBF3F5"/>
</svg>
