<svg width="68" height="68" viewBox="0 0 68 68" fill="none" xmlns="http://www.w3.org/2000/svg">
<g id="Group 35" filter="url(#filter0_d_17_567)">
<circle id="Ellipse 13" cx="34" cy="32" r="30" transform="rotate(90 34 32)" fill="#267DC2"/>
<path id="Vector" d="M33.7359 13.0924C32.8502 13.0924 32.1081 13.3793 31.5336 13.9769L22.5567 23.1558C21.9583 23.6816 21.6471 24.3748 21.6471 25.1875C21.6471 26.0242 21.9343 26.7413 22.4849 27.3149C23.0355 27.8886 23.7537 28.1994 24.5915 28.1994C25.4293 28.1994 26.1475 27.9125 26.722 27.3149L30.6479 23.3948L30.6479 48.0153C30.6479 48.8519 30.9352 49.5451 31.5336 50.0948C32.1321 50.6446 32.8502 50.9076 33.6881 50.9076C34.5259 50.9076 35.2441 50.6446 35.8425 50.0948C36.441 49.5451 36.7522 48.8519 36.7761 48.0153L36.7761 23.3948L40.7499 27.3149C41.3244 27.8886 42.0186 28.1994 42.8086 28.1994C43.6464 28.1994 44.3646 27.9125 44.9391 27.3149C45.5136 26.7174 45.8488 26.0242 45.8488 25.1636C45.8488 24.3987 45.5136 23.7055 44.8673 23.1319L35.8904 13.953C35.2919 13.3793 34.5977 13.0924 33.7359 13.0924Z" fill="#CEDBE5"/>
</g>
<defs>
<filter id="filter0_d_17_567" x="0" y="0" width="68" height="68" filterUnits="userSpaceOnUse" color-interpolation-filters="sRGB">
<feFlood flood-opacity="0" result="BackgroundImageFix"/>
<feColorMatrix in="SourceAlpha" type="matrix" values="0 0 0 0 0 0 0 0 0 0 0 0 0 0 0 0 0 0 127 0" result="hardAlpha"/>
<feOffset dy="2"/>
<feGaussianBlur stdDeviation="2"/>
<feComposite in2="hardAlpha" operator="out"/>
<feColorMatrix type="matrix" values="0 0 0 0 0 0 0 0 0 0 0 0 0 0 0 0 0 0 0.25 0"/>
<feBlend mode="normal" in2="BackgroundImageFix" result="effect1_dropShadow_17_567"/>
<feBlend mode="normal" in="SourceGraphic" in2="effect1_dropShadow_17_567" result="shape"/>
</filter>
</defs>
</svg>
