<svg width="45" height="31" viewBox="0 0 45 31" fill="none" xmlns="http://www.w3.org/2000/svg">
<path id="Vector" d="M22.5 9.3C20.8725 9.3 19.3117 9.95321 18.1609 11.1159C17.0101 12.2787 16.3636 13.8557 16.3636 15.5C16.3636 17.1443 17.0101 18.7213 18.1609 19.8841C19.3117 21.0468 20.8725 21.7 22.5 21.7C24.1275 21.7 25.6883 21.0468 26.8391 19.8841C27.9899 18.7213 28.6364 17.1443 28.6364 15.5C28.6364 13.8557 27.9899 12.2787 26.8391 11.1159C25.6883 9.95321 24.1275 9.3 22.5 9.3ZM22.5 25.8333C19.7876 25.8333 17.1862 24.7446 15.2682 22.8068C13.3502 20.8689 12.2727 18.2406 12.2727 15.5C12.2727 12.7594 13.3502 10.1311 15.2682 8.19323C17.1862 6.25535 19.7876 5.16667 22.5 5.16667C25.2124 5.16667 27.8138 6.25535 29.7318 8.19323C31.6498 10.1311 32.7273 12.7594 32.7273 15.5C32.7273 18.2406 31.6498 20.8689 29.7318 22.8068C27.8138 24.7446 25.2124 25.8333 22.5 25.8333ZM22.5 0C12.2727 0 3.53864 6.42733 0 15.5C3.53864 24.5727 12.2727 31 22.5 31C32.7273 31 41.4614 24.5727 45 15.5C41.4614 6.42733 32.7273 0 22.5 0Z" fill="#1A5796"/>
</svg>
