<svg width="56" height="36" viewBox="0 0 56 36" fill="none" xmlns="http://www.w3.org/2000/svg">
<path fill-rule="evenodd" clip-rule="evenodd" d="M55.3835 6.58246C55.3784 7.12399 55.1585 7.64135 54.7722 8.0209C54.3859 8.40045 53.8647 8.61115 53.3232 8.60672H39.5826C39.3142 8.60928 39.0479 8.55895 38.799 8.4586C38.5501 8.35825 38.3234 8.20986 38.1318 8.02189C37.9402 7.83391 37.7875 7.61004 37.6825 7.36307C37.5774 7.11609 37.5221 6.85083 37.5195 6.58246C37.5195 5.46371 38.4444 4.55542 39.5826 4.55542H53.3232C54.4586 4.55542 55.3835 5.46371 55.3835 6.58246ZM55.3835 18.7364C55.3784 19.2779 55.1585 19.7953 54.7722 20.1748C54.3859 20.5544 53.8647 20.7651 53.3232 20.7606H42.3296C41.788 20.7651 41.2669 20.5544 40.8806 20.1748C40.4943 19.7953 40.2744 19.2779 40.2693 18.7364C40.2693 17.6176 41.1915 16.7093 42.3296 16.7093H53.3232C54.4586 16.7093 55.3835 17.6176 55.3835 18.7364Z" fill="#5A5C6B"/>
<path d="M29.3175 6.19741L30.3255 7.18601C34.5291 11.3176 36.6337 13.3862 36.6309 15.6237C36.6309 16.3575 36.4786 17.0803 36.1851 17.7532C35.2851 19.8107 32.5215 20.8906 26.997 23.0534L26.5954 23.2084C25.0308 23.8204 24.2472 24.1278 23.6158 24.6207C23.1385 24.9928 22.7266 25.4421 22.3974 25.9499C21.9626 26.6145 21.7328 27.4148 21.2703 29.0071C20.5559 31.48 20.2014 32.7178 19.4399 33.2633C18.8709 33.6719 18.1689 33.8508 17.4738 33.7645C16.5378 33.6538 15.6129 32.7427 13.7631 30.9261L10.9219 28.1293L3.5199 35.4067C3.12993 35.7871 2.60672 36 2.06193 36C1.51714 36 0.993933 35.7871 0.60396 35.4067C0.412797 35.2202 0.260882 34.9973 0.157158 34.7512C0.0534349 34.5051 0 34.2407 0 33.9736C0 33.7065 0.0534349 33.4422 0.157158 33.1961C0.260882 32.9499 0.412797 32.7271 0.60396 32.5406L7.97827 25.2383L5.16202 22.4691C3.31498 20.6553 2.39008 19.747 2.27377 18.8248C2.18732 18.1398 2.36998 17.4479 2.7833 16.8947C3.34267 16.1471 4.59988 15.7954 7.11429 15.0948C8.73702 14.6434 9.54839 14.4163 10.2268 13.9899C10.7411 13.6685 11.1979 13.2632 11.5782 12.7908C12.0794 12.1705 12.3923 11.4007 13.0154 9.86103L13.1732 9.46781C15.372 4.04022 16.4713 1.32367 18.5676 0.440298C19.2516 0.149535 19.9882 0 20.7303 0C23.0121 0 25.1139 2.06303 29.3175 6.19741Z" fill="#5A5C6B"/>
<path fill-rule="evenodd" clip-rule="evenodd" d="M55.3841 30.8903C55.379 31.4319 55.1591 31.9492 54.7728 32.3288C54.3865 32.7083 53.8654 32.919 53.3238 32.9146H28.5896C28.048 32.919 27.5269 32.7083 27.1406 32.3288C26.7543 31.9492 26.5344 31.4319 26.5293 30.8903C26.5293 29.7716 27.4514 28.8633 28.5896 28.8633H53.3238C54.4592 28.8633 55.3841 29.7716 55.3841 30.8903Z" fill="#5A5C6B"/>
</svg>
