<svg width="23" height="23" viewBox="0 0 23 23" fill="none" xmlns="http://www.w3.org/2000/svg">
<path id="Vector" d="M11.3333 0.461914C9.1639 0.461914 7.04321 1.10522 5.23941 2.31048C3.4356 3.51574 2.02971 5.22883 1.19951 7.2331C0.369316 9.23738 0.152098 11.4428 0.575329 13.5706C0.998561 15.6983 2.04323 17.6527 3.57724 19.1867C5.11125 20.7207 7.06569 21.7654 9.19342 22.1887C11.3211 22.6119 13.5266 22.3947 15.5309 21.5645C17.5352 20.7343 19.2482 19.3284 20.4535 17.5246C21.6588 15.7208 22.3021 13.6001 22.3021 11.4307C22.299 8.52251 21.1424 5.73435 19.086 3.67798C17.0296 1.6216 14.2415 0.464985 11.3333 0.461914ZM11.3333 20.7119C9.49766 20.7119 7.70322 20.1676 6.17693 19.1477C4.65064 18.1279 3.46104 16.6784 2.75856 14.9824C2.05608 13.2865 1.87229 11.4204 2.2304 9.61998C2.58852 7.8196 3.47248 6.16584 4.77048 4.86783C6.06849 3.56982 7.72225 2.68587 9.52264 2.32775C11.323 1.96963 13.1892 2.15343 14.8851 2.85591C16.581 3.55838 18.0306 4.74798 19.0504 6.27428C20.0702 7.80057 20.6146 9.59501 20.6146 11.4307C20.6118 13.8913 19.633 16.2504 17.8931 17.9904C16.1531 19.7304 13.794 20.7091 11.3333 20.7119ZM18.0833 11.4307C18.0833 11.6544 17.9944 11.8691 17.8362 12.0273C17.678 12.1855 17.4633 12.2744 17.2396 12.2744H11.3333C11.1095 12.2744 10.8949 12.1855 10.7367 12.0273C10.5785 11.8691 10.4896 11.6544 10.4896 11.4307V5.52441C10.4896 5.30064 10.5785 5.08603 10.7367 4.92779C10.8949 4.76956 11.1095 4.68066 11.3333 4.68066C11.5571 4.68066 11.7717 4.76956 11.9299 4.92779C12.0882 5.08603 12.1771 5.30064 12.1771 5.52441V10.5869H17.2396C17.4633 10.5869 17.678 10.6758 17.8362 10.834C17.9944 10.9923 18.0833 11.2069 18.0833 11.4307Z" fill="#15649D"/>
</svg>
