<svg width="72" height="72" viewBox="0 0 72 72" fill="none" xmlns="http://www.w3.org/2000/svg">
<g id="arcticons:unseen-gallery">
<path id="Vector" d="M38.5545 29.7254C37.3266 29.214 35.9744 29.0787 34.6695 29.3369C33.3646 29.5951 32.1659 30.2351 31.2253 31.1757C30.2847 32.1163 29.6447 33.3151 29.3865 34.62C29.1283 35.9249 29.2635 37.277 29.775 38.5049M33.9825 42.3824C35.157 42.7535 36.4107 42.795 37.6072 42.5024C38.8036 42.2098 39.8967 41.5944 40.7674 40.7232C41.6381 39.8521 42.2529 38.7586 42.5449 37.562C42.8368 36.3655 42.7947 35.1117 42.423 33.9374" stroke="#1A5796" stroke-width="2" stroke-linecap="round" stroke-linejoin="round"/>
<path id="Vector_2" d="M42.735 25.5451C37.4969 24.1509 31.9572 24.3971 26.8634 26.2506C21.7697 28.1041 17.3672 31.4756 14.25 35.9101C16.7665 39.4544 20.1103 42.3306 23.991 44.2891M29.916 46.4491C35.0773 47.6763 40.4879 47.3283 45.4494 45.45C50.4109 43.5716 54.6955 40.2492 57.75 35.9116C55.3361 32.5265 52.1675 29.7498 48.495 27.8011" stroke="#1A5796" stroke-width="2" stroke-linecap="round" stroke-linejoin="round"/>
<path id="Vector 5" d="M23.25 49.5L50.25 22.5" stroke="#1A5796" stroke-width="2" stroke-linecap="round" stroke-linejoin="round"/>
</g>
</svg>
