<?xml version="1.0" standalone="no"?>
<!DOCTYPE svg PUBLIC "-//W3C//DTD SVG 20010904//EN"
 "http://www.w3.org/TR/2001/REC-SVG-20010904/DTD/svg10.dtd">
<svg version="1.0" xmlns="http://www.w3.org/2000/svg"
 width="353.000000pt" height="353.000000pt" viewBox="0 0 353.000000 353.000000"
 preserveAspectRatio="xMidYMid meet">

<g transform="translate(0.000000,353.000000) scale(0.100000,-0.100000)"
fill="#274B5B" stroke="#274B5B">
<path d="M1527 3023 c-11 -13 -22 -75 -38 -206 -13 -103 -26 -192 -30 -198 -4
-6 -80 13 -204 51 -199 61 -199 61 -225 42 -14 -10 -26 -28 -28 -40 -2 -11 22
-79 52 -151 31 -71 56 -132 56 -135 0 -2 -25 -10 -56 -17 l-56 -13 7 -35 c4
-20 8 -37 10 -39 3 -3 195 44 200 50 2 2 -25 70 -61 152 -35 82 -63 151 -61
152 1 2 96 -26 211 -62 114 -35 212 -64 217 -64 5 0 9 11 9 25 0 14 2 25 5 25
11 0 90 -43 110 -59 10 -9 4 3 -14 27 -19 24 -46 53 -61 64 -26 19 -28 23 -23
82 3 33 7 63 9 65 2 2 25 -4 51 -13 l48 -15 -45 40 c-45 41 -50 58 -35 135 2
10 4 24 4 29 1 6 33 -70 72 -168 60 -151 74 -178 90 -174 19 5 47 -11 92 -52
l28 -26 -10 28 c-6 15 -17 39 -24 55 -13 24 -12 32 5 71 l19 44 35 -34 36 -34
-26 58 -25 58 36 92 37 92 8 -44 c4 -24 9 -46 12 -48 3 -3 19 -2 36 2 l32 7
-7 71 c-7 72 -18 105 -39 119 -20 14 -63 8 -79 -9 -8 -10 -44 -89 -78 -175
-34 -87 -65 -158 -68 -158 -3 0 -35 72 -70 160 -35 89 -70 167 -78 175 -20 20
-66 19 -86 -2z"/>
<path d="M1984 2722 c-11 -7 5 -195 19 -208 3 -3 27 1 53 10 68 23 73 21 80
-24 8 -49 12 -47 22 10 7 41 10 44 60 61 l52 18 12 -45 c7 -24 15 -44 19 -44
4 0 10 24 13 53 7 52 8 53 49 64 23 7 50 15 59 18 28 11 -103 -283 -142 -317
-35 -32 -20 -37 36 -13 29 12 45 13 81 4 48 -13 57 -8 67 33 5 24 3 28 -19 34
-14 3 -25 10 -25 16 0 5 25 67 55 138 46 108 53 133 45 155 -19 50 -43 49
-250 -16 -105 -32 -195 -59 -200 -59 -4 0 -11 27 -15 60 -7 57 -8 60 -33 60
-15 0 -32 -4 -38 -8z"/>
<path d="M1240 2462 c0 -22 32 -147 41 -156 12 -14 11 50 -1 94 -11 39 -39 83
-40 62z"/>
<path d="M2556 2318 c-10 -38 -7 -46 16 -54 22 -7 22 -7 -8 -32 -16 -14 -22
-23 -14 -20 58 21 119 30 144 22 28 -10 27 -11 -70 -83 -55 -41 -105 -81 -111
-89 -29 -36 -15 -63 84 -163 57 -59 93 -103 87 -108 -5 -4 -54 -35 -110 -68
l-101 -59 -33 39 c-18 22 -51 47 -73 57 -36 16 -42 25 -72 103 -17 47 -39 97
-49 111 -16 26 -17 26 -44 9 -15 -9 -28 -18 -30 -18 -1 -1 11 -31 28 -66 49
-106 70 -207 70 -338 0 -64 -3 -125 -6 -137 -4 -15 -24 -26 -73 -42 -38 -12
-96 -40 -129 -62 l-61 -39 -61 31 c-56 28 -69 30 -169 31 -101 0 -112 -2 -175
-31 l-68 -32 -31 24 c-43 32 -90 55 -167 82 -62 22 -65 25 -72 61 -27 147 15
367 94 502 139 234 391 321 609 211 l36 -19 14 27 c7 15 15 30 17 35 7 14
-124 66 -196 78 -82 12 -168 2 -253 -30 -72 -28 -172 -103 -229 -174 -54 -65
-121 -193 -140 -264 -12 -48 -18 -51 -51 -24 -21 17 -24 27 -24 95 0 42 -1 76
-3 76 -2 0 -10 -17 -18 -37 -19 -44 -12 -111 14 -139 17 -17 16 -20 -32 -66
l-49 -48 -52 30 c-29 17 -55 30 -58 30 -4 0 -14 -14 -23 -31 -17 -34 -17 -34
38 -64 l27 -15 -35 -83 c-47 -107 -53 -128 -43 -154 14 -38 39 -44 161 -34 62
5 114 9 115 8 1 -1 -8 -29 -20 -62 -29 -85 -29 -237 2 -317 21 -54 86 -128
112 -128 6 0 29 -15 50 -34 22 -19 59 -39 82 -45 29 -7 50 -21 67 -45 41 -57
92 -83 173 -91 40 -3 80 -9 89 -11 10 -3 24 3 33 13 12 14 26 17 65 15 l51 -4
-27 -35 c-14 -19 -24 -36 -23 -38 2 -1 41 14 86 35 l82 38 -20 -50 -19 -49 22
15 c48 33 156 147 168 176 14 34 24 38 40 12 9 -15 14 -12 49 27 22 24 52 69
67 98 l27 54 27 -26 28 -27 7 104 c8 117 -4 227 -35 319 -12 34 -20 63 -18 65
2 1 55 -4 118 -11 102 -13 117 -13 138 1 32 21 37 39 22 85 -17 50 -22 53 -59
35 -23 -12 -28 -20 -24 -37 5 -19 3 -21 -18 -16 -13 4 -36 7 -50 7 l-25 0 25
55 c14 30 31 55 38 55 7 0 23 5 36 11 22 10 23 14 13 42 -7 19 -8 31 -1 34 6
2 57 31 115 66 97 57 105 65 108 95 3 30 -6 42 -92 131 -53 53 -96 101 -96
107 1 5 48 43 106 84 130 93 144 113 107 159 -12 15 -48 30 -113 46 -117 30
-126 30 -134 3z m-1376 -652 c0 -17 -10 -30 -35 -45 -19 -11 -35 -16 -35 -11
0 9 58 80 66 80 2 0 4 -11 4 -24z m1185 8 c8 -4 22 -19 30 -34 l15 -28 -29 11
c-18 7 -31 20 -34 34 -5 26 -5 25 18 17z m-1190 -172 c3 -19 3 -37 0 -41 -10
-9 -65 60 -65 80 0 15 4 16 29 6 22 -8 31 -19 36 -45z m1235 38 c0 -11 -13
-34 -30 -52 l-29 -33 -1 48 c0 29 4 46 10 42 5 -3 18 -1 27 4 24 14 23 14 23
-9z m-1357 -62 l23 -46 -44 -7 c-24 -4 -45 -5 -47 -3 -4 4 37 109 41 105 2 -2
14 -24 27 -49z m1241 -218 c9 -30 19 -86 23 -125 6 -64 5 -69 -10 -57 -14 12
-17 10 -22 -15 -3 -15 -10 -41 -14 -58 l-9 -30 -2 35 -2 35 -12 -46 c-7 -25
-18 -54 -25 -65 -10 -16 -11 -15 -6 14 4 18 2 32 -3 32 -5 0 -13 -20 -16 -45
-7 -45 -21 -56 -43 -34 -17 17 -30 4 -37 -38 -16 -98 -45 -76 -40 30 l3 72
-13 -55 c-8 -30 -14 -49 -15 -42 -2 28 -18 9 -30 -37 -7 -27 -18 -57 -25 -67
-13 -17 -14 -17 -24 3 -8 14 -8 31 -2 54 6 19 10 45 9 59 -1 21 -3 20 -13 -11
-6 -19 -28 -59 -49 -88 -37 -51 -38 -52 -85 -49 -43 3 -50 7 -82 51 l-35 47
-8 -32 c-19 -73 -18 -72 -70 -26 -36 33 -52 57 -67 103 -17 52 -19 55 -17 23
2 -20 -1 -34 -6 -31 -6 4 -8 -17 -5 -51 3 -31 2 -56 -2 -56 -3 0 -16 18 -28
39 -14 24 -31 41 -45 43 -18 2 -23 11 -25 41 -2 20 -8 37 -14 37 -7 0 -9 -15
-5 -39 4 -34 2 -39 -12 -34 -52 20 -90 67 -92 115 -1 23 -1 23 -8 -1 -4 -14
-11 -26 -18 -28 -16 -6 -61 53 -73 95 -16 61 -11 201 10 247 15 35 19 37 25
20 17 -50 24 -60 19 -30 -5 34 8 61 25 51 6 -4 11 -18 11 -32 0 -24 25 -84 36
-84 2 0 0 9 -6 19 -5 11 -10 34 -10 51 0 30 2 32 27 25 38 -9 51 -21 58 -56 4
-16 11 -31 16 -35 6 -3 7 5 3 20 -7 31 1 32 41 6 41 -27 73 -25 136 8 45 23
68 28 147 30 89 4 97 2 160 -29 71 -35 101 -38 135 -14 28 19 35 19 40 -2 3
-11 5 -8 6 9 1 20 9 32 31 43 16 8 31 15 35 15 3 0 5 -19 5 -42 1 -36 2 -40
11 -25 6 11 9 31 6 47 -5 22 -1 29 20 39 34 15 40 8 48 -59 10 -82 19 -76 12
9 -7 83 3 84 27 1z m-51 -345 c-3 -9 -8 -14 -10 -11 -3 3 -2 9 2 15 9 16 15
13 8 -4z"/>
<path d="M1609 1199 c-19 -19 -20 -28 -14 -107 7 -80 17 -112 34 -112 4 0 5
18 3 40 -2 23 -1 65 3 95 l6 55 139 0 138 0 7 -77 c5 -52 4 -82 -4 -95 -9 -14
-8 -18 4 -18 22 0 32 28 38 110 5 73 -2 105 -27 122 -6 4 -77 8 -158 8 -137 0
-150 -2 -169 -21z"/>
<path d="M1876 1111 c-16 -24 -90 -51 -146 -51 -50 -1 -53 -2 -36 -15 29 -22
80 -28 119 -16 42 14 80 53 75 78 -3 14 -5 15 -12 4z"/>
<path d="M810 2308 c-92 -24 -102 -32 -98 -77 3 -33 12 -43 115 -120 l113 -83
-100 -109 c-55 -60 -100 -115 -100 -122 0 -21 28 -54 64 -75 37 -22 41 -20 65
25 10 19 8 24 -15 36 l-26 13 39 12 c39 13 90 48 81 58 -3 2 -18 0 -33 -6 -26
-10 -27 -9 -14 7 7 10 39 46 71 80 32 34 58 66 58 72 0 30 -32 63 -125 131
l-104 75 59 15 c32 8 61 18 64 21 10 9 -15 69 -27 68 -7 0 -46 -10 -87 -21z"/>
<path d="M1213 2105 c-44 -72 -48 -91 -12 -59 28 25 61 91 57 112 -2 11 -19
-8 -45 -53z"/>
<path d="M2092 2107 l-22 -23 28 -32 27 -33 30 25 30 24 -29 31 c-17 17 -33
31 -36 31 -4 0 -16 -10 -28 -23z"/>
<path d="M1390 1750 l0 -40 155 0 155 0 0 40 0 40 -155 0 -155 0 0 -40z"/>
<path d="M1830 1750 l0 -40 155 0 155 0 0 40 0 40 -155 0 -155 0 0 -40z"/>
<path d="M1366 1623 c30 -132 163 -200 274 -141 50 27 95 86 104 136 5 32 5
32 -34 32 -34 0 -40 -3 -40 -21 0 -12 -15 -36 -34 -55 -29 -29 -41 -34 -79
-34 -54 0 -102 34 -112 80 -6 27 -10 30 -46 30 -38 0 -39 -1 -33 -27z"/>
<path d="M1800 1628 c0 -38 40 -105 78 -132 98 -68 234 -30 283 79 29 63 26
75 -21 75 -29 0 -40 -4 -40 -15 0 -29 -28 -71 -55 -83 -69 -32 -143 -3 -165
63 -10 31 -16 35 -46 35 -28 0 -34 -4 -34 -22z"/>
<path d="M1520 1619 c-9 -15 -8 -24 1 -35 12 -15 56 -16 52 -1 -2 4 -3 18 -3
32 0 32 -34 35 -50 4z"/>
<path d="M1962 1631 c-8 -4 -12 -19 -10 -32 2 -18 10 -25 32 -27 23 -3 28 0
22 13 -3 9 -6 25 -6 36 0 20 -16 24 -38 10z"/>
</g>
</svg>
