<svg width="39" height="28" viewBox="0 0 39 28" fill="none" xmlns="http://www.w3.org/2000/svg">
<path d="M19.6498 22.419C17.9512 22.419 16.2907 21.9153 14.8783 20.9716C13.466 20.0279 12.3652 18.6866 11.7151 17.1172C11.0651 15.5479 10.895 13.8211 11.2264 12.1551C11.5578 10.4891 12.3758 8.95879 13.5769 7.75768C14.778 6.55657 16.3083 5.7386 17.9743 5.40722C19.6403 5.07583 21.3671 5.24591 22.9364 5.89595C24.5058 6.54598 25.8471 7.64678 26.7908 9.05914C27.7345 10.4715 28.2382 12.132 28.2382 13.8306C28.2382 16.1084 27.3334 18.2929 25.7227 19.9035C24.1121 21.5142 21.9276 22.419 19.6498 22.419ZM19.6498 0.470856C6.29006 0.470856 0.564453 13.8306 0.564453 13.8306C0.564453 13.8306 6.29006 27.1903 19.6498 27.1903C33.0095 27.1903 38.7351 13.8306 38.7351 13.8306C38.7351 13.8306 33.0095 0.470856 19.6498 0.470856Z" fill="#A4B3BC"/>
<path d="M19.6502 18.6019C22.2854 18.6019 24.4216 16.4657 24.4216 13.8306C24.4216 11.1955 22.2854 9.05927 19.6502 9.05927C17.0151 9.05927 14.8789 11.1955 14.8789 13.8306C14.8789 16.4657 17.0151 18.6019 19.6502 18.6019Z" fill="#A4B3BC"/>
</svg>
