<svg width="30" height="29" viewBox="0 0 30 29" fill="none" xmlns="http://www.w3.org/2000/svg">
<g clip-path="url(#clip0_184_1645)">
<mask id="mask0_184_1645" style="mask-type:luminance" maskUnits="userSpaceOnUse" x="-1" y="-2" width="33" height="33">
<path d="M-0.951172 -1.6748H31.0735V30.3499H-0.951172V-1.6748Z" fill="white"/>
<path fill-rule="evenodd" clip-rule="evenodd" d="M4.5918 14.3375C4.5918 17.1142 5.69484 19.7772 7.65828 21.7407C9.62171 23.7041 12.2847 24.8071 15.0614 24.8071C17.8381 24.8071 20.5011 23.7041 22.4645 21.7407C24.428 19.7772 25.531 17.1142 25.531 14.3375C25.531 11.5608 24.428 8.89783 22.4645 6.9344C20.5011 4.97097 17.8381 3.86792 15.0614 3.86792C12.2847 3.86792 9.62171 4.97097 7.65828 6.9344C5.69484 8.89783 4.5918 11.5608 4.5918 14.3375ZM24.2993 14.3375C24.2993 16.7876 23.326 19.1373 21.5936 20.8697C19.8611 22.6021 17.5114 23.5754 15.0614 23.5754C12.6114 23.5754 10.2617 22.6021 8.52923 20.8697C6.79679 19.1373 5.82352 16.7876 5.82352 14.3375C5.82352 11.8875 6.79679 9.5378 8.52923 7.80535C10.2617 6.07291 12.6114 5.09964 15.0614 5.09964C17.5114 5.09964 19.8611 6.07291 21.5936 7.80535C23.326 9.5378 24.2993 11.8875 24.2993 14.3375Z" fill="black"/>
<path fill-rule="evenodd" clip-rule="evenodd" d="M10.75 14.3374C10.75 19.7508 12.5261 24.1911 15.061 24.1911C17.5959 24.1911 19.372 19.7508 19.372 14.3374C19.372 8.92276 17.5959 4.48364 15.061 4.48364C12.5261 4.48364 10.75 8.92276 10.75 14.3374ZM18.1403 14.3374C18.1403 19.1275 16.6068 22.9594 15.061 22.9594C13.5152 22.9594 11.9817 19.1275 11.9817 14.3374C11.9817 9.54724 13.5152 5.71536 15.061 5.71536C16.6068 5.71536 18.1403 9.54724 18.1403 14.3374Z" fill="black"/>
<path d="M7.34504 8.56311L8.17029 7.64917C8.30209 7.76741 8.4425 7.8832 8.59277 7.99528C10.2162 9.21222 12.7782 9.95372 15.5705 9.95372C17.9514 9.95372 20.1734 9.41546 21.7968 8.48797C22.1708 8.27634 22.5242 8.03015 22.8524 7.75263L23.653 8.68874C23.2859 9.00283 22.8696 9.29228 22.409 9.55587C20.5897 10.5967 18.1571 11.1854 15.5705 11.1854C12.5281 11.1854 9.70501 10.3688 7.85374 8.98066C7.67783 8.84895 7.50809 8.7092 7.34504 8.56187M7.34504 20.1265L8.17029 21.038C8.30209 20.9197 8.4425 20.8039 8.59277 20.6931C10.2162 19.4761 12.7782 18.7346 15.5705 18.7346C17.9514 18.7346 20.1734 19.2717 21.7968 20.2004C22.1922 20.427 22.5457 20.6734 22.8524 20.9345L23.653 19.9984C23.2663 19.6711 22.8498 19.3808 22.409 19.1313C20.5897 18.0917 18.1571 17.5029 15.5705 17.5029C12.5281 17.5029 9.70501 18.3196 7.85374 19.7065C7.67391 19.842 7.50393 19.9811 7.34504 20.1253M5.20801 14.9533V13.7215H24.9155V14.9533H5.20801Z" fill="black"/>
</mask>
<g mask="url(#mask0_184_1645)">
<path d="M15.0613 28.6753C22.9797 28.6753 29.3989 22.2561 29.3989 14.3376C29.3989 6.41918 22.9797 0 15.0613 0C7.14281 0 0.723633 6.41918 0.723633 14.3376C0.723633 22.2561 7.14281 28.6753 15.0613 28.6753Z" fill="#1A5796"/>
</g>
</g>
<defs>
<clipPath id="clip0_184_1645">
<rect width="28.6753" height="28.6753" fill="white" transform="translate(0.723633)"/>
</clipPath>
</defs>
</svg>
